<svg width="18" height="14" viewBox="0 0 18 14" fill="none" xmlns="http://www.w3.org/2000/svg">
<path d="M0.823158 7.79867L14.8868 7.79867L9.13623 12.6016C8.79215 12.8892 8.75428 13.3917 9.05172 13.7243C9.34805 14.057 9.86829 14.0936 10.2124 13.8066L17.7146 7.53974C17.8941 7.39011 17.9978 7.1731 18 6.94335C18.0016 6.71414 17.9012 6.49553 17.7245 6.34325L12.8377 2.12981L10.2771 0.171914C10.1262 0.0562446 9.94567 7.04132e-07 9.76677 7.19772e-07C9.52421 7.40977e-07 9.28275 0.103467 9.12031 0.301908C8.83824 0.646795 8.89916 1.14715 9.25531 1.41987L11.7791 3.34752L15.0931 6.20636L0.823158 6.20636C0.368774 6.20636 -6.51279e-07 6.56239 -6.12762e-07 7.00225C-5.74245e-07 7.44211 0.368774 7.79867 0.823158 7.79867Z" fill="#F57C3D"/>
</svg>
