<svg width="33" height="28" viewBox="0 0 33 28" fill="none" xmlns="http://www.w3.org/2000/svg">
<path d="M1.7868 3.52094C0.781726 3.52094 0 2.73851 0 1.78841C0 0.782431 0.781726 0 1.7868 0H31.2132C32.1624 0 32.9442 0.782431 32.9442 1.73253C32.9442 2.68262 32.1624 3.52094 31.2132 3.52094H1.7868Z" fill="#19191A"/>
<path d="M1.7868 15.3134C0.781726 15.3134 0 14.531 0 13.5809C0 12.6308 0.781726 11.7925 1.7868 11.7925H31.2132C32.1624 11.7925 33 12.5749 33 13.5809C33 14.531 32.2183 15.3693 31.2132 15.3693H1.7868V15.3134Z" fill="#19191A"/>
<path d="M1.7868 27.1056C0.837564 27.1056 0 26.3232 0 25.3172C0 24.3671 0.781726 23.5288 1.7868 23.5288H31.2132C32.1624 23.5288 33 24.3112 33 25.3172C33 26.2673 32.2183 27.1056 31.269 27.1056H1.7868Z" fill="#19191A"/>
</svg>
