<svg width="50" height="50" viewBox="0 0 50 50" fill="none" xmlns="http://www.w3.org/2000/svg">
<path d="M31.3897 26.7976C33.3591 24.9028 35.9898 23.8507 38.7227 23.8647C40.6805 23.8221 42.6083 24.3506 44.2707 25.3855C45.933 26.4205 47.258 27.9171 48.0838 29.6927C48.1904 29.9351 48.3889 30.1254 48.6356 30.2217C48.8823 30.318 49.1572 30.3125 49.3999 30.2064C49.6426 30.1003 49.8333 29.9022 49.9301 29.6557C50.0269 29.4092 50.022 29.1343 49.9164 28.8914C49.2255 27.3549 48.2122 25.9848 46.9453 24.8743C45.6783 23.7637 44.1874 22.9385 42.5736 22.4547C43.3788 21.7787 44.0245 20.9331 44.4644 19.9783C44.9044 19.0235 45.1277 17.9832 45.1184 16.9319C45.1184 13.1093 42.2501 9.99918 38.7249 9.99918C37.3849 10.0334 36.0889 10.4847 35.0175 11.2902C33.9462 12.0957 33.1527 13.2153 32.7477 14.493C31.581 13.5867 30.2613 12.8969 28.8512 12.4563C29.6568 11.7803 30.3027 10.9346 30.7429 9.97965C31.183 9.0247 31.4065 7.98421 31.3971 6.93276C31.3971 3.1101 28.5288 0 25.0031 0C21.4778 0 18.6095 3.1101 18.6095 6.93276C18.6002 7.98415 18.8236 9.02458 19.2637 9.97949C19.7038 10.9344 20.3497 11.7801 21.1551 12.4561C19.7437 12.8975 18.4228 13.5878 17.2546 14.4944C16.8498 13.2164 16.0563 12.0965 14.9848 11.2907C13.9133 10.4849 12.6171 10.0335 11.2769 9.99921C7.75164 9.99921 4.88337 13.1093 4.88337 16.932C4.87404 17.9832 5.09736 19.0235 5.53732 19.9783C5.97728 20.9331 6.623 21.7788 7.4282 22.4547C5.81436 22.9385 4.32343 23.7637 3.05652 24.8743C1.7896 25.9849 0.776318 27.3549 0.0853842 28.8914C0.032298 29.0118 0.00349587 29.1415 0.000628277 29.273C-0.00223932 29.4046 0.020884 29.5354 0.0686732 29.658C0.116462 29.7806 0.187978 29.8926 0.279121 29.9875C0.370263 30.0824 0.479241 30.1584 0.599808 30.2111C0.720375 30.2638 0.850161 30.2922 0.981726 30.2947C1.11329 30.2971 1.24405 30.2736 1.36651 30.2255C1.48896 30.1773 1.60071 30.1054 1.69535 30.014C1.78998 29.9226 1.86564 29.8134 1.91799 29.6927C2.74376 27.9171 4.06874 26.4205 5.73112 25.3855C7.39349 24.3506 9.3213 23.8221 11.2791 23.8647C14.0146 23.8494 16.6478 24.9034 18.6172 26.802C18.6298 27.825 18.8629 28.8332 19.3006 29.7579C19.7383 30.6827 20.3704 31.5021 21.1536 32.1604C19.7426 32.6019 18.422 33.2922 17.2541 34.1987C16.8491 32.921 16.0557 31.8014 14.9843 30.9959C13.9129 30.1904 12.6169 29.7391 11.2769 29.7049C7.75165 29.7049 4.88338 32.815 4.88338 36.6376C4.87403 37.6891 5.09745 38.7296 5.53763 39.6846C5.97781 40.6395 6.62384 41.4853 7.42939 42.1612C5.81598 42.645 4.32535 43.4699 3.0584 44.5798C1.79145 45.6898 0.777757 47.0589 0.0859286 48.5947C0.0325219 48.715 0.00341636 48.8447 0.000283107 48.9764C-0.00285015 49.108 0.0200507 49.239 0.0676706 49.3617C0.11529 49.4845 0.186692 49.5966 0.277774 49.6917C0.368857 49.7868 0.477828 49.863 0.598429 49.9159C0.719031 49.9687 0.848888 49.9973 0.980546 49.9998C1.1122 50.0024 1.24307 49.9789 1.36563 49.9307C1.48818 49.8826 1.60002 49.8107 1.69471 49.7192C1.78941 49.6277 1.8651 49.5184 1.91743 49.3975C2.74408 47.6227 4.06939 46.1267 5.73171 45.0922C7.39404 44.0576 9.32153 43.5291 11.2791 43.5712C13.2366 43.529 15.1641 44.0574 16.8265 45.0919C18.4888 46.1264 19.8141 47.6224 20.6407 49.3973C20.6934 49.5175 20.7692 49.6262 20.8639 49.7172C20.9586 49.8081 21.0703 49.8795 21.1926 49.9273C21.3149 49.975 21.4454 49.9983 21.5767 49.9956C21.7079 49.993 21.8374 49.9645 21.9577 49.9118C22.0779 49.8591 22.1866 49.7833 22.2776 49.6886C22.3685 49.5939 22.4399 49.4822 22.4877 49.3599C22.5355 49.2376 22.5587 49.1072 22.556 48.9759C22.5534 48.8446 22.5249 48.7152 22.4722 48.5949C21.7804 47.0586 20.7663 45.6889 19.4988 44.5786C18.2313 43.4684 16.7399 42.6436 15.1258 42.16C15.9309 41.4841 16.5766 40.6385 17.0165 39.6838C17.4565 38.729 17.6798 37.6888 17.6704 36.6376C17.6704 36.5932 17.6651 36.5503 17.6643 36.5061C19.6419 34.6215 22.2689 33.5702 25.0007 33.57C27.7325 33.5698 30.3597 34.6208 32.3375 36.5051C32.3368 36.5496 32.3313 36.5929 32.3313 36.6376C32.322 37.6888 32.5453 38.729 32.9852 39.6838C33.4252 40.6385 34.0708 41.4841 34.876 42.16C33.2618 42.6436 31.7705 43.4684 30.503 44.5786C29.2355 45.6889 28.2214 47.0586 27.5295 48.5949C27.4769 48.7152 27.4484 48.8446 27.4457 48.9759C27.4431 49.1072 27.4663 49.2376 27.5141 49.3599C27.5619 49.4822 27.6333 49.5939 27.7242 49.6886C27.8151 49.7833 27.9239 49.8591 28.0441 49.9118C28.1644 49.9645 28.2938 49.993 28.4251 49.9956C28.5564 49.9983 28.6869 49.975 28.8092 49.9273C28.9315 49.8795 29.0431 49.8081 29.1378 49.7172C29.2325 49.6262 29.3084 49.5175 29.3611 49.3973C30.1877 47.6224 31.513 46.1264 33.1753 45.0919C34.8376 44.0574 36.7652 43.529 38.7227 43.5712C40.6802 43.5291 42.6077 44.0576 44.2701 45.0922C45.9324 46.1267 47.2577 47.6227 48.0843 49.3975C48.1371 49.5178 48.2129 49.6265 48.3077 49.7174C48.4024 49.8083 48.5141 49.8797 48.6364 49.9275C48.7588 49.9752 48.8893 49.9984 49.0206 49.9957C49.1518 49.993 49.2813 49.9645 49.4016 49.9118C49.5218 49.8591 49.6305 49.7832 49.7215 49.6885C49.8124 49.5938 49.8838 49.482 49.9315 49.3597C49.9793 49.2374 50.0025 49.1069 49.9998 48.9756C49.9971 48.8444 49.9686 48.7149 49.9159 48.5947C49.224 47.0589 48.2103 45.6898 46.9434 44.5798C45.6764 43.4699 44.1858 42.645 42.5724 42.1612C43.3779 41.4853 44.024 40.6395 44.4641 39.6846C44.9043 38.7296 45.1277 37.6891 45.1184 36.6376C45.1184 32.815 42.2501 29.7049 38.7249 29.7049C37.3851 29.7391 36.0894 30.1902 35.0181 30.9954C33.9468 31.8007 33.1533 32.9199 32.7481 34.1973C31.5818 33.2912 30.2624 32.6014 28.8527 32.1605C29.6366 31.5018 30.2691 30.6817 30.7069 29.7561C31.1448 28.8305 31.3777 27.8214 31.3897 26.7976ZM11.2769 41.5705C8.85404 41.5705 6.8831 39.3577 6.8831 36.6376C6.8831 33.9176 8.85406 31.7045 11.2769 31.7045C13.5448 31.7045 15.4162 33.6437 15.6464 36.1224C15.6629 36.3067 15.6707 36.4711 15.6707 36.6376C15.6707 39.3577 13.6998 41.5705 11.2769 41.5705ZM38.7249 31.7045C41.1477 31.7045 43.1187 33.9176 43.1187 36.6376C43.1187 39.3577 41.1477 41.5705 38.7249 41.5705C36.302 41.5705 34.3311 39.3577 34.3311 36.6376C34.3311 36.4716 34.3389 36.3075 34.3533 36.1456C34.5852 33.644 36.4568 31.7045 38.7249 31.7045ZM38.7249 11.9988C41.1477 11.9988 43.1187 14.2119 43.1187 16.9319C43.1187 19.652 41.1477 21.8651 38.7249 21.8651C36.302 21.8651 34.3311 19.652 34.3311 16.9319C34.3311 16.7666 34.339 16.6034 34.3532 16.4421C34.5849 13.9385 36.4566 11.9988 38.7249 11.9988ZM25.0031 1.9996C27.4259 1.9996 29.3974 4.21269 29.3974 6.93274C29.3974 9.65278 27.4259 11.8659 25.0031 11.8659C22.5802 11.8659 20.6093 9.65278 20.6093 6.93274C20.6093 4.21269 22.5802 1.9996 25.0031 1.9996ZM25.0009 13.8655C27.7353 13.8515 30.3674 14.9046 32.3374 16.801C32.3366 16.845 32.3313 16.8877 32.3313 16.9319C32.322 17.9832 32.5453 19.0234 32.9852 19.9782C33.4252 20.933 34.0709 21.7787 34.8761 22.4547C33.498 22.8845 32.2058 23.5521 31.0578 24.4274C30.6851 23.097 29.8962 21.9209 28.8067 21.0712C27.7172 20.2216 26.3842 19.743 25.003 19.7057C23.6215 19.7431 22.2883 20.222 21.1987 21.072C20.1091 21.9221 19.3204 23.0987 18.9481 24.4296C17.7994 23.5527 16.5059 22.8841 15.1263 22.4541C15.9313 21.7781 16.5768 20.9325 17.0167 19.9778C17.4565 19.0231 17.6798 17.983 17.6704 16.9319C17.6704 16.8881 17.6651 16.8457 17.6644 16.8021C19.6351 14.9067 22.2666 13.8534 25.0009 13.8655ZM11.2769 11.9988C13.5449 11.9988 15.4164 13.9382 15.6465 16.4172C15.6629 16.6028 15.6707 16.7663 15.6707 16.9319C15.6707 19.652 13.6998 21.8651 11.2769 21.8651C8.85407 21.8651 6.88312 19.652 6.88312 16.9319C6.88312 14.2119 8.85404 11.9988 11.2769 11.9988ZM25.0222 31.5702C22.5692 31.5576 20.6092 29.3507 20.6092 26.6384C20.6092 23.9184 22.5802 21.7053 25.003 21.7053C27.4259 21.7053 29.3974 23.9184 29.3974 26.6384C29.3974 29.3512 27.4362 31.5585 25.0222 31.5702Z" fill="black"/>
</svg>
