<svg width="46" height="46" viewBox="0 0 46 46" fill="none" xmlns="http://www.w3.org/2000/svg">
<path d="M9 30H1C0.448 30 0 30.447 0 31V45C0 45.553 0.448 46 1 46H9C9.552 46 10 45.553 10 45V31C10 30.447 9.552 30 9 30ZM8 44H2V32H8V44Z" fill="black"/>
<path d="M21 26H13C12.448 26 12 26.447 12 27V45C12 45.553 12.448 46 13 46H21C21.552 46 22 45.553 22 45V27C22 26.447 21.552 26 21 26ZM20 44H14V28H20V44Z" fill="black"/>
<path d="M33 20H25C24.447 20 24 20.448 24 21V45C24 45.553 24.447 46 25 46H33C33.553 46 34 45.553 34 45V21C34 20.448 33.553 20 33 20ZM32 44H26V22H32V44Z" fill="black"/>
<path d="M45 12H37C36.447 12 36 12.448 36 13V45C36 45.553 36.447 46 37 46H45C45.553 46 46 45.553 46 45V13C46 12.448 45.553 12 45 12ZM44 44H38V14H44V44Z" fill="black"/>
<path d="M38.729 8C39.282 8 39.729 7.552 39.729 7V1C39.729 0.979 39.718 0.963 39.717 0.943C39.713 0.873 39.695 0.808 39.676 0.741C39.659 0.68 39.647 0.621 39.62 0.566C39.594 0.512 39.556 0.466 39.519 0.418C39.477 0.36 39.436 0.305 39.383 0.258C39.367 0.244 39.361 0.226 39.345 0.214C39.312 0.188 39.271 0.18 39.236 0.159C39.175 0.123 39.118 0.089 39.05 0.066C38.984 0.044 38.919 0.034 38.851 0.026C38.81 0.02 38.772 0 38.729 0H33C32.447 0 32 0.448 32 1C32 1.552 32.447 2 33 2H36.591C30.424 9.017 16.777 20 1 20C0.448 20 0 20.448 0 21C0 21.552 0.448 22 1 22C17.165 22 31.143 11.032 37.729 3.731V7C37.729 7.552 38.176 8 38.729 8Z" fill="black"/>
</svg>
