<svg width="54" height="55" viewBox="0 0 54 55" fill="none" xmlns="http://www.w3.org/2000/svg">
<path d="M26.9999 18.5639C28.0248 18.5624 29.0413 18.7483 29.9994 19.1124C30.103 19.1517 30.2133 19.1703 30.3241 19.1669C30.4349 19.1636 30.5439 19.1386 30.645 19.0931C30.746 19.0477 30.8372 18.9828 30.9132 18.9021C30.9891 18.8214 31.0485 18.7266 31.0878 18.623C31.1272 18.5194 31.1457 18.4091 31.1424 18.2983C31.1391 18.1875 31.114 18.0785 31.0686 17.9774C31.0231 17.8764 30.9582 17.7852 30.8776 17.7092C30.7969 17.6333 30.7021 17.5739 30.5985 17.5346C28.4307 16.7103 26.0457 16.6553 23.8422 17.3786C21.6387 18.1019 19.7503 19.5597 18.4928 21.5083C17.2352 23.4569 16.6847 25.7782 16.9334 28.084C17.182 30.3898 18.2147 32.5404 19.8587 34.1761C21.5028 35.8118 23.6585 36.8336 25.9655 37.0705C28.2726 37.3075 30.591 36.7453 32.5332 35.4779C34.4755 34.2105 35.9237 32.3147 36.6359 30.1076C37.348 27.9005 37.2808 25.5158 36.4456 23.3522C36.4081 23.2458 36.3495 23.148 36.2735 23.0646C36.1974 22.9812 36.1054 22.9139 36.0029 22.8667C35.9004 22.8195 35.7894 22.7933 35.6766 22.7898C35.5638 22.7862 35.4514 22.8053 35.3461 22.846C35.2409 22.8866 35.1448 22.948 35.0636 23.0264C34.9825 23.1049 34.9179 23.1988 34.8737 23.3026C34.8295 23.4065 34.8066 23.5181 34.8063 23.631C34.806 23.7439 34.8284 23.8557 34.8721 23.9597C35.5215 25.64 35.6161 27.4841 35.142 29.222C34.6679 30.9599 33.65 32.5005 32.2372 33.6183C30.8245 34.736 29.0911 35.3723 27.2908 35.434C25.4904 35.4957 23.7175 34.9795 22.2316 33.961C20.7457 32.9426 19.6248 31.4753 19.0329 29.7738C18.441 28.0724 18.4091 26.2262 18.942 24.5054C19.4749 22.7846 20.5446 21.2795 21.9945 20.2104C23.4444 19.1414 25.1984 18.5644 26.9999 18.5639Z" fill="black"/>
<path d="M46.7312 0.0647182C46.5771 0.000631949 46.4075 -0.0163392 46.2438 0.0159502C46.0801 0.0482396 45.9297 0.12834 45.8115 0.246124L40.749 5.30862C40.67 5.38712 40.6074 5.48046 40.5647 5.58328C40.522 5.6861 40.5 5.79635 40.5001 5.90769V12.3075L26.5993 26.2083C26.441 26.3666 26.3521 26.5814 26.3521 26.8053C26.3521 27.0292 26.441 27.2439 26.5993 27.4022C26.7576 27.5605 26.9724 27.6495 27.1963 27.6495C27.4202 27.6495 27.6349 27.5605 27.7932 27.4022L41.694 13.5014H48.0938C48.3173 13.5005 48.5312 13.411 48.6887 13.2525L53.7512 8.19003C53.8685 8.07205 53.9483 7.92202 53.9805 7.75882C54.0128 7.59561 53.9961 7.42651 53.9325 7.27277C53.869 7.11903 53.7614 6.98752 53.6233 6.89476C53.4852 6.802 53.3227 6.75214 53.1563 6.75144H48.444L50.3804 4.81503C50.5387 4.65671 50.6277 4.44198 50.6277 4.21808C50.6277 3.99418 50.5387 3.77945 50.3804 3.62112C50.2221 3.4628 50.0074 3.37386 49.7835 3.37386C49.5596 3.37386 49.3448 3.4628 49.1865 3.62112L47.2501 5.55753V0.845187C47.2504 0.67837 47.2013 0.515194 47.109 0.376278C47.0166 0.237363 46.8851 0.128942 46.7312 0.0647182ZM42.1876 6.25784L45.5626 2.88284V7.24503L42.1876 10.62V6.25784ZM51.1187 8.43894L47.7437 11.8139H43.3815L46.7565 8.43894H51.1187Z" fill="black"/>
<path d="M53.1562 26.1577H48.9375C48.8014 22.4306 47.7152 18.8002 45.7819 15.6108C45.6655 15.4195 45.4779 15.2822 45.2603 15.2292C45.0428 15.1762 44.813 15.2118 44.6217 15.3282C44.4304 15.4445 44.2931 15.6322 44.2401 15.8497C44.1871 16.0673 44.2227 16.297 44.3391 16.4883C46.1023 19.4157 47.0938 22.7427 47.2205 26.1577H43.0312C42.8075 26.1577 42.5929 26.2466 42.4346 26.4048C42.2764 26.5631 42.1875 26.7777 42.1875 27.0015C42.1875 27.2252 42.2764 27.4399 42.4346 27.5981C42.5929 27.7563 42.8075 27.8452 43.0312 27.8452H47.2289C47.0117 32.9168 44.8996 37.7223 41.3102 41.3117C37.7208 44.9011 32.9153 47.0132 27.8438 47.2304V43.0327C27.8438 42.8089 27.7549 42.5943 27.5966 42.4361C27.4384 42.2779 27.2238 42.189 27 42.189C26.7762 42.189 26.5616 42.2779 26.4034 42.4361C26.2451 42.5943 26.1562 42.8089 26.1562 43.0327V47.2304C21.0847 47.0132 16.2792 44.9011 12.6898 41.3117C9.10038 37.7223 6.9883 32.9168 6.77109 27.8452H10.9688C11.1925 27.8452 11.4071 27.7563 11.5654 27.5981C11.7236 27.4399 11.8125 27.2252 11.8125 27.0015C11.8125 26.7777 11.7236 26.5631 11.5654 26.4048C11.4071 26.2466 11.1925 26.1577 10.9688 26.1577H6.77109C6.9883 21.0862 9.10038 16.2807 12.6898 12.6913C16.2792 9.10184 21.0847 6.98976 26.1562 6.77256V10.5483C26.1562 10.7721 26.2451 10.9867 26.4034 11.145C26.5616 11.3032 26.7762 11.3921 27 11.3921C27.2238 11.3921 27.4384 11.3032 27.5966 11.145C27.7549 10.9867 27.8438 10.7721 27.8438 10.5483V6.781C31.2741 6.91462 34.6137 7.92086 37.5469 9.70459C37.7351 9.7822 37.9451 9.78909 38.1381 9.724C38.3311 9.65892 38.494 9.52624 38.5968 9.35045C38.6996 9.17466 38.7353 8.96762 38.6974 8.76753C38.6596 8.56745 38.5506 8.38781 38.3906 8.26178C35.2055 6.31332 31.5747 5.21245 27.8438 5.06396V0.845215C27.8438 0.621438 27.7549 0.406827 27.5966 0.248594C27.4384 0.0903597 27.2238 0.00146484 27 0.00146484C26.7762 0.00146484 26.5616 0.0903597 26.4034 0.248594C26.2451 0.406827 26.1562 0.621438 26.1562 0.845215V5.08506C20.6373 5.30357 15.4034 7.59387 11.4979 11.4994C7.5924 15.4049 5.30211 20.6388 5.08359 26.1577H0.84375C0.619974 26.1577 0.405362 26.2466 0.247129 26.4048C0.0888949 26.5631 0 26.7777 0 27.0015C0 27.2252 0.0888949 27.4399 0.247129 27.5981C0.405362 27.7563 0.619974 27.8452 0.84375 27.8452H5.08359C5.30211 33.3641 7.5924 38.598 11.4979 42.5035C15.4034 46.4091 20.6373 48.6994 26.1562 48.9179V53.1577C26.1562 53.3815 26.2451 53.5961 26.4034 53.7543C26.5616 53.9126 26.7762 54.0015 27 54.0015C27.2238 54.0015 27.4384 53.9126 27.5966 53.7543C27.7549 53.5961 27.8438 53.3815 27.8438 53.1577V48.9179C33.3627 48.6994 38.5965 46.4091 42.5021 42.5035C46.4076 38.598 48.6979 33.3641 48.9164 27.8452H53.1562C53.38 27.8452 53.5946 27.7563 53.7529 27.5981C53.9111 27.4399 54 27.2252 54 27.0015C54 26.7777 53.9111 26.5631 53.7529 26.4048C53.5946 26.2466 53.38 26.1577 53.1562 26.1577Z" fill="black"/>
</svg>
