<svg width="652" height="368" viewBox="0 0 652 368" fill="none" xmlns="http://www.w3.org/2000/svg">
<path d="M87.1758 357.777C87.1758 357.777 -48.4999 113.078 53.0605 56.019C134.103 10.4604 205.18 90.1757 291.916 34.6895C403.785 -36.9658 488.607 11.001 549.229 100.152C594.732 167.04 618.834 210.338 641.659 262.433C677.198 343.574 601.85 362.053 601.85 362.053L87.1758 357.777Z" fill="#E7F3FE"/>
<path d="M462.1 359.399L400.251 359.498C399.367 359.498 398.631 358.613 398.582 357.483C398.533 356.401 399.171 355.418 400.054 355.32L461.658 349.767C466.665 349.324 471.23 351.241 471.328 354.091C471.525 357.04 467.156 359.399 462.1 359.399Z" fill="#75A1DE"/>
<path d="M382.04 350.602C384.15 350.062 388.077 338.365 388.077 338.365C388.077 338.365 343.409 323.277 324.461 313.448L298.052 344.017C331.971 352.519 380.42 350.996 382.04 350.602Z" fill="#F09959"/>
<path d="M375.168 333.794C386.163 336.645 403.638 329.518 406.927 330.255C410.215 330.944 423.862 338.07 427.15 341.657C430.439 345.196 442.024 356.254 439.913 356.942C437.851 357.63 423.273 346.965 421.505 346.621C419.738 346.277 418.855 348.735 404.276 351.585C389.697 354.435 372.124 347.064 372.124 347.064L375.168 333.794Z" fill="#F09959"/>
<path d="M392.642 344.803C392.642 344.803 409.577 340.527 411.639 341.264C413.701 341.952 426.365 344.803 435.102 354.779C426.807 352.273 414.879 351.585 411.639 351.585C408.399 351.585 392.642 344.803 392.642 344.803Z" fill="#E38540"/>
<path d="M396.668 337.677C403.883 346.916 422.242 349.767 425.04 352.961C427.838 356.156 418.364 354.829 413.357 354.386C400.644 353.305 391.759 358.466 381.451 355.271C371.143 352.077 368.835 344.41 368.835 344.41L396.668 337.677Z" fill="#F09959"/>
<path d="M261.139 173.429C228.496 189.5 213.574 201.246 203.462 244.986C193.35 288.776 192.81 330.403 198.112 361.365C234.338 362.397 338.107 366.329 338.107 366.329C338.107 366.329 336.144 302.782 325.541 252.457C315.429 204.441 300.998 185.716 288.775 177.214C276.503 168.662 261.139 173.429 261.139 173.429Z" fill="#A2DFF2"/>
<path d="M269.042 322.392C257.359 310.646 260.501 231.127 241.308 195.349L205.573 262.089L194.774 317.625C194.676 333.646 195.903 348.439 198.112 361.414C198.259 362.151 198.897 362.643 199.633 362.594C229.135 359.989 230.754 347.162 324.952 332.958C327.21 332.565 276.994 330.403 269.042 322.392Z" fill="#96CFE0"/>
<path d="M258.047 173.479C253.923 183.112 262.317 195.791 275.571 205.768C288.824 215.745 296.874 210.29 296.187 202.426C295.5 194.612 294.764 186.306 291.671 181.293C288.579 176.329 263.937 172.054 263.937 172.054C263.937 172.054 258.734 171.808 258.047 173.479Z" fill="white"/>
<path d="M273.803 125.07L261.139 173.479C259.912 176.723 260.255 180.359 262.072 183.308C267.226 191.663 278.319 207.636 286.222 205.522C296.874 202.672 289.757 182.768 289.757 182.768L303.992 132.589L273.803 125.07Z" fill="#F09959"/>
<path d="M293.193 128.018L280.577 122.907L276.798 132.786C278.516 174.855 283.866 192.007 292.113 196.774C292.555 190.287 289.855 182.669 289.855 182.669L300.163 145.318L293.193 128.018Z" fill="#E38540"/>
<path d="M328.241 146.989C325.786 163.699 319.209 178 307.281 176.231C295.353 174.462 274.883 160.504 277.387 143.794C279.89 127.085 306.593 107.082 318.521 108.851C330.45 110.621 330.744 130.279 328.241 146.989Z" fill="#F09959"/>
<path d="M237.577 209.798C238.51 206.013 223.342 203.753 220.937 206.8C197.081 237.221 159.922 319.296 168.267 334.138C177.839 351.241 281.265 328.781 283.375 328.24C285.486 327.7 279.645 311.678 279.645 311.678C279.645 311.678 221.722 312.759 211.954 306.174C242.339 249.066 230.362 238.499 237.577 209.798Z" fill="#F09959"/>
<path d="M231.687 192.694C206.653 203.949 179.459 277.03 179.459 277.03C179.459 277.03 185.84 278.651 206.653 285.581C215.292 288.481 223.686 291.135 223.686 291.135C223.686 291.135 243.566 265.284 249.849 244.986C257.899 218.889 247.149 185.765 231.687 192.694Z" fill="#A2DFF2"/>
<path d="M182.159 270.149C205.622 273.196 219.612 281.355 226.729 286.957C227.809 285.483 229.086 283.615 230.509 281.502C225.551 276.882 214.85 268.626 199.241 266.414C192.909 265.529 188.098 264.94 184.417 264.596C183.582 266.709 182.797 268.527 182.159 270.149Z" fill="white"/>
<path d="M187.558 257.42C187.165 258.354 186.773 259.238 186.38 260.074C206.997 259.238 226.729 269.313 231.736 275.407C232.325 276.145 232.816 276.784 233.307 277.324C233.847 276.538 234.338 275.702 234.878 274.867C231.491 271.525 225.502 266.168 219.415 263.514C206.947 258.157 189.129 257.518 187.558 257.42Z" fill="white"/>
<path d="M325.688 332.664H299.378L295.451 283.468H329.959L325.688 332.664Z" fill="#75A1DE"/>
<path d="M276.454 311.875C283.719 311.678 295.647 303.324 299.721 301.014C303.795 298.704 326.915 293.74 327.995 296.197C329.075 298.704 308.606 303.864 308.606 303.864L323.872 304.552C323.872 304.552 328.339 311.334 328.682 315.758C329.026 320.23 327.259 326.619 327.259 326.619L320.485 320.574C320.485 320.574 314.987 323.621 308.066 327.7C301.145 331.779 288.677 329.322 283.375 328.241C278.025 327.16 265.606 323.277 265.606 323.277L276.454 311.875Z" fill="#F09959"/>
<path d="M181.177 309.565C181.177 309.565 192.958 302.733 204.837 304.404C211.611 305.338 212.347 306.469 211.954 306.174C213.427 303.421 214.801 300.768 216.078 298.212C209.893 298.507 194.038 300.178 181.177 309.565Z" fill="#E38540"/>
<path d="M553.303 225.77V346.964C553.303 350.994 549.524 354.238 544.811 354.238H519.384C515.065 354.238 511.531 357.285 511.531 361.02H548.1C555.954 361.02 562.335 355.516 562.335 348.734V225.77H553.303Z" fill="#6791C9"/>
<path d="M534.699 329.567L530.674 328.781C528.023 328.289 526.305 325.979 526.894 323.67L558.506 200.656C559.095 198.346 561.746 196.921 564.397 197.413L568.422 198.199C571.073 198.691 572.791 201 572.202 203.31L540.639 326.274C540.05 328.584 537.399 330.059 534.699 329.567Z" fill="#95BEF5"/>
<path d="M535.828 329.763L535.337 329.665C533.276 329.272 531.951 327.503 532.441 325.733L564.544 200.853C564.986 199.083 567.048 197.953 569.109 198.346L569.6 198.444C571.662 198.838 572.987 200.607 572.496 202.376L540.393 327.257C539.952 329.026 537.89 330.157 535.828 329.763Z" fill="#75A1DE"/>
<path d="M620.012 368H76.8185C74.3151 368 72.2534 365.985 72.2534 363.429C72.2534 360.923 74.3151 358.859 76.8185 358.859H620.012C622.515 358.859 624.577 360.923 624.577 363.429C624.577 365.985 622.515 368 620.012 368Z" fill="#2E5B9A"/>
<path d="M279.252 104.183C254.66 119.467 270.22 135.98 263.692 164.387C267.717 165.763 272.085 157.85 274.883 151.609C277.681 145.367 280.185 136.324 281.117 136.619C282.05 136.914 283.621 150.97 283.621 150.97L287.351 152.837C287.351 152.837 292.653 143.5 292.358 141.288C292.064 139.126 287.695 128.51 292.996 123.497C296.383 120.303 310.422 127.232 310.422 127.232L296.727 107.574L279.252 104.183Z" fill="#F09959"/>
<path opacity="0.5" d="M279.252 104.183C254.66 119.467 270.22 135.98 263.692 164.387C267.717 165.763 272.085 157.85 274.883 151.609C277.681 145.367 280.185 136.324 281.117 136.619C282.05 136.914 283.621 150.97 283.621 150.97L287.351 152.837C287.351 152.837 292.653 143.5 292.358 141.288C292.064 139.126 287.695 128.51 292.996 123.497C296.383 120.303 310.422 127.232 310.422 127.232L296.727 107.574L279.252 104.183Z" fill="#2E5B9A"/>
<path d="M333.149 120.745C331.922 135.735 308.704 131.017 297.954 117.649C287.695 104.871 279.203 113.668 268.993 117.944C251.862 125.119 271.153 83.6396 305.759 90.1761C331.677 95.0907 333.984 110.768 333.149 120.745Z" fill="#2E5B9A"/>
<path d="M281.657 136.618C282.737 142.221 280.626 147.283 276.994 147.971C273.362 148.659 269.533 144.678 268.502 139.125C267.422 133.522 269.533 128.46 273.165 127.772C276.749 127.084 280.577 131.016 281.657 136.618Z" fill="#F09959"/>
<path d="M543.78 169.744H423.469C422.094 169.744 420.965 168.613 420.965 167.237V97.4986C420.965 96.1225 422.094 94.9922 423.469 94.9922H543.78C545.155 94.9922 546.284 96.1225 546.284 97.4986V167.237C546.235 168.613 545.155 169.744 543.78 169.744Z" fill="#9EC8FF"/>
<path d="M540.246 167.433H427.003C425.825 167.433 424.843 166.45 424.843 165.271V109.195C424.843 108.015 425.825 107.032 427.003 107.032H540.246C541.424 107.032 542.406 108.015 542.406 109.195V165.271C542.406 166.45 541.424 167.433 540.246 167.433Z" fill="white"/>
<path d="M429.801 103.445H427.15C426.61 103.445 426.12 103.003 426.12 102.413V100.25C426.12 99.7097 426.561 99.2183 427.15 99.2183H429.801C430.341 99.2183 430.832 99.6606 430.832 100.25V102.413C430.832 103.003 430.341 103.445 429.801 103.445Z" fill="white"/>
<path d="M438.293 103.444H435.642C435.102 103.444 434.612 103.002 434.612 102.412V100.25C434.612 99.7092 435.053 99.2178 435.642 99.2178H438.293C438.833 99.2178 439.324 99.6601 439.324 100.25V102.412C439.324 103.002 438.833 103.444 438.293 103.444Z" fill="white"/>
<path d="M446.785 103.444H444.134C443.594 103.444 443.104 103.002 443.104 102.412V100.25C443.104 99.7092 443.545 99.2178 444.134 99.2178H446.785C447.325 99.2178 447.816 99.6601 447.816 100.25V102.412C447.816 103.002 447.325 103.444 446.785 103.444Z" fill="white"/>
<path d="M538.43 163.895H428.819V110.571H538.43V163.895ZM429.212 163.502H538.037V110.964H429.212V163.502Z" fill="#9EC8FF"/>
<path d="M538.234 152.886H429.016V153.279H538.234V152.886Z" fill="#9EC8FF"/>
<path d="M538.234 142.319H429.016V142.712H538.234V142.319Z" fill="#9EC8FF"/>
<path d="M538.234 131.753H429.016V132.146H538.234V131.753Z" fill="#9EC8FF"/>
<path d="M538.234 121.186H429.016V121.579H538.234V121.186Z" fill="#9EC8FF"/>
<path d="M522.82 110.768H522.428V163.649H522.82V110.768Z" fill="#9EC8FF"/>
<path d="M507.211 110.768H506.818V163.649H507.211V110.768Z" fill="#9EC8FF"/>
<path d="M491.601 110.768H491.209V163.649H491.601V110.768Z" fill="#9EC8FF"/>
<path d="M475.992 110.768H475.599V163.649H475.992V110.768Z" fill="#9EC8FF"/>
<path d="M460.382 110.768H459.989V163.649H460.382V110.768Z" fill="#9EC8FF"/>
<path d="M444.772 110.768H444.38V163.649H444.772V110.768Z" fill="#9EC8FF"/>
<path d="M534.159 117.452H530.478C529.054 117.452 527.925 116.322 527.925 114.896C527.925 113.471 529.054 112.341 530.478 112.341H534.159C535.583 112.341 536.712 113.471 536.712 114.896C536.712 116.322 535.534 117.452 534.159 117.452Z" fill="#F39892"/>
<path d="M535.485 138.83H529.153C528.465 138.83 527.925 138.29 527.925 137.602V134.948C527.925 134.26 528.465 133.719 529.153 133.719H535.485C536.172 133.719 536.712 134.26 536.712 134.948V137.602C536.712 138.29 536.123 138.83 535.485 138.83Z" fill="#F39892"/>
<path d="M456.504 130.377H447.865C446.932 130.377 446.147 129.591 446.147 128.657V124.578C446.147 123.644 446.932 122.858 447.865 122.858H456.504C457.437 122.858 458.222 123.644 458.222 124.578V128.657C458.271 129.591 457.486 130.377 456.504 130.377Z" fill="#9EC8FF"/>
<path d="M455.326 129.345H449.141C448.454 129.345 447.914 128.804 447.914 128.116V125.216C447.914 124.528 448.454 123.988 449.141 123.988H455.326C456.013 123.988 456.553 124.528 456.553 125.216V128.116C456.553 128.755 456.013 129.345 455.326 129.345Z" fill="white"/>
<path d="M519.09 162.077H510.451C509.518 162.077 508.732 161.29 508.732 160.356V156.277C508.732 155.343 509.518 154.557 510.451 154.557H519.09C520.022 154.557 520.808 155.343 520.808 156.277V160.356C520.808 161.29 520.022 162.077 519.09 162.077Z" fill="#9EC8FF"/>
<path d="M517.863 160.995H511.678C510.99 160.995 510.451 160.455 510.451 159.766V156.867C510.451 156.179 510.99 155.638 511.678 155.638H517.863C518.55 155.638 519.09 156.179 519.09 156.867V159.766C519.139 160.455 518.55 160.995 517.863 160.995Z" fill="white"/>
<path d="M488.803 125.069H482.029C481.588 125.069 481.195 124.676 481.195 124.234C481.195 123.792 481.588 123.398 482.029 123.398H488.803C489.245 123.398 489.638 123.792 489.638 124.234C489.638 124.676 489.294 125.069 488.803 125.069Z" fill="#9EC8FF"/>
<path d="M488.803 127.674H482.029C481.588 127.674 481.195 127.281 481.195 126.838C481.195 126.396 481.588 126.003 482.029 126.003H488.803C489.245 126.003 489.638 126.396 489.638 126.838C489.638 127.281 489.294 127.674 488.803 127.674Z" fill="#9EC8FF"/>
<path d="M473.881 156.523H467.107C466.665 156.523 466.273 156.13 466.273 155.688C466.273 155.245 466.665 154.852 467.107 154.852H473.881C474.323 154.852 474.715 155.245 474.715 155.688C474.715 156.179 474.372 156.523 473.881 156.523Z" fill="#9EC8FF"/>
<path d="M473.881 159.176H467.107C466.665 159.176 466.273 158.783 466.273 158.341C466.273 157.899 466.665 157.505 467.107 157.505H473.881C474.323 157.505 474.715 157.899 474.715 158.341C474.715 158.783 474.372 159.176 473.881 159.176Z" fill="#9EC8FF"/>
<path d="M438.882 136.815H432.157C431.715 136.815 431.323 136.422 431.323 135.98C431.323 135.537 431.715 135.144 432.157 135.144H438.931C439.373 135.144 439.766 135.537 439.766 135.98C439.717 136.422 439.324 136.815 438.882 136.815Z" fill="#9EC8FF"/>
<path d="M438.882 139.42H432.157C431.715 139.42 431.323 139.027 431.323 138.585C431.323 138.143 431.715 137.75 432.157 137.75H438.931C439.373 137.75 439.766 138.143 439.766 138.585C439.717 139.027 439.324 139.42 438.882 139.42Z" fill="#9EC8FF"/>
<path d="M504.118 125.069H497.344C496.903 125.069 496.51 124.676 496.51 124.234C496.51 123.792 496.903 123.398 497.344 123.398H504.118C504.56 123.398 504.953 123.792 504.953 124.234C504.953 124.676 504.56 125.069 504.118 125.069Z" fill="#9EC8FF"/>
<path d="M504.118 127.674H497.344C496.903 127.674 496.51 127.281 496.51 126.838C496.51 126.396 496.903 126.003 497.344 126.003H504.118C504.56 126.003 504.953 126.396 504.953 126.838C504.953 127.281 504.56 127.674 504.118 127.674Z" fill="#9EC8FF"/>
<path d="M457.584 151.903H447.57C446.687 151.903 446 151.215 446 150.33V145.809C446 144.924 446.687 144.236 447.57 144.236H457.584C458.468 144.236 459.155 144.924 459.155 145.809V150.33C459.155 151.215 458.419 151.903 457.584 151.903Z" fill="#9CD499"/>
<path d="M451.89 150.674C451.841 150.674 451.841 150.674 451.89 150.674C451.645 150.674 451.448 150.576 451.301 150.428L449.436 148.315C449.141 147.971 449.19 147.48 449.485 147.185C449.829 146.89 450.319 146.939 450.614 147.234L451.939 148.757L455.326 145.415C455.621 145.121 456.112 145.121 456.455 145.415C456.75 145.71 456.75 146.202 456.455 146.546L452.479 150.478C452.283 150.576 452.087 150.674 451.89 150.674Z" fill="white"/>
<path d="M504.315 119.713H494.301C493.417 119.713 492.73 119.025 492.73 118.14V113.619C492.73 112.734 493.417 112.046 494.301 112.046H504.315C505.198 112.046 505.885 112.734 505.885 113.619V118.14C505.885 119.025 505.198 119.713 504.315 119.713Z" fill="#9CD499"/>
<path d="M498.621 118.434C498.621 118.434 498.572 118.434 498.621 118.434C498.375 118.434 498.179 118.336 498.032 118.188L496.166 116.075C495.872 115.731 495.921 115.239 496.215 114.945C496.559 114.65 497.05 114.699 497.344 114.994L498.67 116.517L502.057 113.175C502.351 112.88 502.842 112.88 503.186 113.175C503.48 113.47 503.48 113.962 503.186 114.306L499.21 118.237C499.013 118.385 498.817 118.434 498.621 118.434Z" fill="white"/>
<path d="M502.498 147.824C502.498 149.79 500.928 151.363 498.964 151.363C497.001 151.363 495.43 149.79 495.43 147.824C495.43 145.858 497.001 144.286 498.964 144.286C500.928 144.286 502.498 145.858 502.498 147.824Z" fill="#9EC8FF"/>
<path d="M456.504 158.685C456.504 160.651 454.933 162.224 452.97 162.224C451.006 162.224 449.436 160.651 449.436 158.685C449.436 156.719 451.006 155.146 452.97 155.146C454.884 155.146 456.504 156.719 456.504 158.685Z" fill="#9EC8FF"/>
<path d="M477.072 201.885H404.521C403.834 201.885 403.294 201.344 403.294 200.656V160.16C403.294 159.472 403.834 158.931 404.521 158.931H477.072C477.759 158.931 478.299 159.472 478.299 160.16V200.656C478.348 201.295 477.759 201.885 477.072 201.885Z" fill="#9EC8FF"/>
<path d="M475.55 199.969H406.092C405.454 199.969 404.963 199.477 404.963 198.838V161.979C404.963 161.34 405.454 160.848 406.092 160.848H475.501C476.139 160.848 476.63 161.34 476.63 161.979V198.838C476.679 199.477 476.188 199.969 475.55 199.969Z" fill="white"/>
<path d="M473.39 197.56H408.203C407.467 197.56 406.927 196.971 406.927 196.282V164.485C406.927 163.748 407.516 163.207 408.203 163.207H473.39C474.126 163.207 474.666 163.797 474.666 164.485V196.282C474.715 197.02 474.126 197.56 473.39 197.56Z" fill="#9EC8FF"/>
<path d="M440.796 192.351C447.384 192.351 452.725 187.004 452.725 180.408C452.725 173.813 447.384 168.466 440.796 168.466C434.209 168.466 428.868 173.813 428.868 180.408C428.868 187.004 434.209 192.351 440.796 192.351Z" fill="white"/>
<path d="M451.056 180.408C451.056 186.06 446.441 190.68 440.796 190.68C435.151 190.68 430.537 186.06 430.537 180.408C430.537 174.756 435.151 170.137 440.796 170.137C446.49 170.137 451.056 174.707 451.056 180.408Z" fill="#9EC8FF"/>
<path d="M445.852 179.867L442.122 182.03L438.391 184.192V179.867V175.493L442.122 177.656L445.852 179.867Z" fill="white"/>
<path d="M398.533 56.0191H351.606C350.428 56.0191 349.495 55.0361 349.495 53.9058C349.495 52.7263 350.477 51.7925 351.606 51.7925H398.533C399.711 51.7925 400.643 52.7754 400.643 53.9058C400.693 55.0361 399.711 56.0191 398.533 56.0191Z" fill="#9EC8FF"/>
<path d="M521.152 236.435H474.224C473.046 236.435 472.114 235.452 472.114 234.322C472.114 233.142 473.096 232.208 474.224 232.208H521.152C522.33 232.208 523.262 233.191 523.262 234.322C523.311 235.501 522.33 236.435 521.152 236.435Z" fill="#9EC8FF"/>
<path d="M521.152 244.249H474.224C473.046 244.249 472.114 243.266 472.114 242.136C472.114 240.956 473.096 240.022 474.224 240.022H521.152C522.33 240.022 523.262 241.005 523.262 242.136C523.311 243.315 522.33 244.249 521.152 244.249Z" fill="#9EC8FF"/>
<path d="M521.152 252.801H474.224C473.046 252.801 472.114 251.818 472.114 250.688C472.114 249.508 473.096 248.574 474.224 248.574H521.152C522.33 248.574 523.262 249.557 523.262 250.688C523.311 251.867 522.33 252.801 521.152 252.801Z" fill="#9EC8FF"/>
<path d="M428.77 64.1773H351.606C350.428 64.1773 349.495 63.1943 349.495 62.064C349.495 60.8845 350.477 59.9507 351.606 59.9507H428.721C429.899 59.9507 430.832 60.9336 430.832 62.064C430.881 63.2435 429.948 64.1773 428.77 64.1773Z" fill="#9EC8FF"/>
<path d="M95.766 182.521C83.4943 193.726 88.8448 204.932 97.8767 225.77C106.958 246.608 108.529 323.473 108.529 323.473L101.067 322.391C101.067 322.391 102.147 243.413 91.9863 222.035C81.8744 200.705 77.6039 189.991 68.5228 196.97C59.4909 203.9 95.766 182.521 95.766 182.521Z" fill="#74B570"/>
<path d="M102.491 168.023C101.018 161.388 92.1337 154.213 80.3529 148.119C82.12 157.899 87.765 173.921 81.9237 177.214C74.0698 181.637 81.1383 159.275 78.144 146.989C67.0504 141.582 53.6988 137.11 41.378 134.899C41.378 134.948 41.4271 134.997 41.4271 135.046C48.3484 152.64 57.4294 159.619 53.6988 162.273C50.9009 164.288 41.7707 143.941 29.6463 133.522C20.5653 133.031 12.9078 134.26 8.39177 137.847C1.37237 143.401 -3.33995 148.315 3.72853 165.271C7.75364 168.171 12.9568 170.235 19.0436 170.824C35.0459 172.446 42.507 172.938 31.3153 178.295C25.8176 180.899 16.6383 178.147 9.17716 176.476C11.5824 180.949 14.5767 185.962 18.16 191.712C20.4671 195.348 22.9705 198.543 25.6703 201.246C30.8244 202.229 35.3404 202.229 37.6965 201.246C45.1577 198.052 64.3506 187.878 69.1611 192.154C73.8734 196.331 33.6223 198.985 36.4203 209.601C55.9077 220.855 78.2422 215.498 82.1691 205.178C87.4214 191.269 107.007 188.026 102.491 168.023Z" fill="#9CD499"/>
<path d="M62.1907 243.905C83.4943 227.883 105.387 242.824 116.579 259.926C127.771 277.029 119.769 315.462 119.769 315.462C119.769 315.462 115.499 315.462 115.499 313.84C115.499 312.218 127.231 268.478 99.4966 248.721C82.169 236.385 69.6519 242.332 68.032 248.18C66.4121 254.029 74.9532 264.743 74.9532 264.743L62.1907 243.905Z" fill="#74B570"/>
<path d="M111.228 211.026C89.9247 211.026 82.9544 244.102 88.8448 263.318C94.6861 282.534 102.687 318.313 102.687 318.313L108.038 312.956C108.038 312.956 87.7648 262.777 92.5753 240.367C97.3858 217.956 109.118 214.221 111.228 214.221C113.339 214.221 111.228 211.026 111.228 211.026Z" fill="#9CD499"/>
<path d="M93.3607 263.466C91.839 261.5 90.0228 259.829 87.7648 258.748C88.0594 260.32 88.452 261.893 88.8938 263.318C91.5445 272.066 94.6861 284.254 97.2877 294.919C97.5331 293.543 97.8767 291.43 98.4657 288.186C98.613 287.4 98.7112 286.564 98.7603 285.68C96.6004 278.603 94.637 270.887 93.3607 263.466Z" fill="#74B570"/>
<path d="M87.5194 263.613C47.0229 246.51 68.3265 223.116 32.6405 238.548C30.1371 239.629 27.0446 242.382 24.0012 246.166C27.1919 247.05 31.0206 247.738 35.3402 247.1C45.9921 245.478 42.2615 254.029 24.6884 256.192C21.3505 256.585 18.6999 257.125 16.4419 257.912C8.04803 274.032 4.26836 295.214 22.0377 302.586C25.5229 304.06 29.8425 304.847 34.653 305.191C40.1507 300.817 33.3277 275.654 41.7706 279.094C49.8699 282.436 39.2181 300.718 40.6907 305.289C48.6918 305.141 57.5274 303.814 66.0194 301.75C69.3573 299.883 71.9099 297.376 72.6952 294.034C75.3459 282.829 57.7729 275.899 57.2329 266.267C56.7421 257.42 63.6633 285.679 82.0708 289.857C98.613 282.19 106.467 271.624 87.5194 263.613Z" fill="#9CD499"/>
<path d="M116.382 233.437C112.112 224.345 123.304 222.232 122.764 229.161C122.273 235.305 122.224 250.245 128.556 254.324C139.404 253.145 154.179 248.771 165.371 242.087C165.518 241.202 165.371 240.268 164.88 239.285C160.07 229.702 129.145 221.691 138.766 218.447C146.423 215.892 159.824 230.93 170.574 238.548C177.054 233.634 181.422 227.736 181.422 221.2C181.422 212.353 170.672 202.278 156.732 197.511C150.449 198.15 144.656 201.59 135.575 206.751C122.175 214.368 125.267 202.032 137.931 194.759C126.985 195.349 116.039 200.017 107.989 211.223C107.989 211.223 108.774 215.99 103.669 223.411C89.8756 243.61 105.78 255.405 124.825 254.619C123.795 249.262 119.328 239.679 116.382 233.437Z" fill="#9CD499"/>
<path d="M63.4669 243.02C53.0606 251.08 41.4761 260.516 27.241 266.905C13.0058 273.294 15.8528 294.182 15.8528 294.182C15.8528 294.182 13.7421 276.145 25.572 270.002C37.4019 263.809 45.2558 256.486 54.2386 255.061C63.2215 253.636 68.2284 252.211 68.2284 252.211C68.2284 252.211 65.3813 246.51 67.0503 244.396C68.7192 242.234 63.4669 243.02 63.4669 243.02Z" fill="#74B570"/>
<path d="M12.0731 148.316C50.2135 158.538 78.1929 182.964 83.3961 188.862C88.5993 194.808 88.5993 196.43 88.5993 196.43L84.5742 203.999L82.6598 203.065C82.6598 203.065 85.7523 196.676 77.7021 188.37C63.8105 174.069 46.8756 162.765 35.2911 157.752C23.6576 152.788 12.0731 148.316 12.0731 148.316Z" fill="#74B570"/>
<path d="M117.364 359.743H102.785C92.428 359.743 84.0342 351.339 84.0342 340.969V307.451H136.164V340.969C136.164 351.339 127.721 359.743 117.364 359.743Z" fill="#F39892"/>
</svg>
