<svg width="510" height="499" viewBox="0 0 510 499" fill="none" xmlns="http://www.w3.org/2000/svg">
<g clip-path="url(#clip0)">
<path d="M90.1152 393.851H257.48C270.493 393.851 281.042 404.389 281.042 417.39V428.649C281.042 441.942 270.253 452.721 256.947 452.721H90.1152" fill="#BCBEC0"/>
<path d="M85 393.851H399.19C410.263 393.851 419.6 401.265 422.499 411.396C423.109 413.516 423.435 415.755 423.435 418.068V426.924C423.435 431.657 422.164 436.09 419.935 439.896C415.464 447.559 407.145 452.712 397.619 452.712H85" fill="white"/>
<path d="M85 443.912H275.57C276.588 442.672 277.485 441.329 278.246 439.895C280.032 436.536 281.037 432.708 281.037 428.641V417.386C281.037 415.313 280.771 413.305 280.264 411.396C279.41 408.156 277.885 405.187 275.845 402.655H85" fill="white"/>
<path d="M85 393.851H399.19C410.263 393.851 419.6 401.265 422.499 411.396H280.264C279.41 408.156 277.885 405.187 275.845 402.655H85" fill="#E6E7E8"/>
<path d="M90.1152 432.52L145.18 433.506L90.1152 434.103" fill="#BCBEC0"/>
<path d="M129.899 498.38H307.494V452.593H128.46" fill="#A8CEFF"/>
<path d="M297.302 498.38H499.421V452.593H296.787C284.323 452.593 274.221 462.685 274.221 475.137V475.321C274.221 488.057 284.555 498.38 297.302 498.38Z" fill="#6B8BB7"/>
<path d="M260.727 498.38H506.439C508.333 498.38 509.866 496.849 509.866 494.956C509.866 493.064 508.333 491.532 506.439 491.532H260.727C258.833 491.532 257.299 493.064 257.299 494.956C257.299 496.849 258.833 498.38 260.727 498.38Z" fill="#A8CEFF"/>
<path d="M260.727 459.441H506.439C508.333 459.441 509.866 457.909 509.866 456.017C509.866 454.125 508.333 452.593 506.439 452.593H260.727C258.833 452.593 257.299 454.125 257.299 456.017C257.299 457.909 258.833 459.441 260.727 459.441Z" fill="#A8CEFF"/>
<path d="M499.421 475.484L472.118 476.257L499.421 476.72V475.484Z" fill="#6B8BB7"/>
<path d="M499.421 464.95L434.469 465.718L499.421 466.182V464.95Z" fill="#6B8BB7"/>
<path d="M435.135 465.563C435.135 465.563 437.918 467.533 438.841 470.764C439.004 471.33 439.108 471.935 439.129 472.575C439.284 476.87 439.129 486.593 439.129 486.593L447.345 481.731L455.54 486.593V473.416C455.54 470.923 454.836 468.498 453.53 466.911C452.899 466.143 452.13 465.563 451.258 465.563H435.135Z" fill="#FBE0CD"/>
<path d="M435.135 465.563C435.135 465.563 437.918 467.533 438.841 470.764L455.312 470.957C455.312 470.957 454.668 466.327 451.266 465.563H435.135Z" fill="#E7F3FE"/>
<path d="M276.631 393.975H458.083V326.699H276.034C261.504 326.699 249.723 338.469 249.723 352.985V367.089C249.723 381.94 261.77 393.975 276.631 393.975Z" fill="#2E5B9A"/>
<path d="M125.768 326.699H467.939C470.25 326.699 472.123 328.566 472.123 330.874V332.582C472.123 334.89 470.25 336.761 467.939 336.761H270.283C265.559 336.761 261.285 338.769 258.296 341.983C255.65 344.832 254.018 348.621 253.992 352.8V367.278C254.035 373.461 257.463 378.824 262.496 381.695C264.974 383.102 267.839 383.909 270.884 383.909H467.935C470.246 383.909 472.118 385.78 472.118 388.088V389.796C472.118 392.105 470.246 393.975 467.935 393.975H127.528" fill="#6B8BB7"/>
<path d="M458.083 360.335L432.824 361.468L458.083 362.15V360.335Z" fill="#2E5B9A"/>
<path d="M458.082 344.854L397.988 345.986L458.082 346.669V344.854Z" fill="#2E5B9A"/>
<path d="M398.606 345.764C398.606 345.764 402.571 347.896 403.885 351.402C404.117 352.015 404.267 352.672 404.297 353.363C404.516 358.023 404.297 368.565 404.297 368.565L416.005 363.292L427.683 368.565V354.277C427.683 351.573 426.682 348.947 424.818 347.227C423.916 346.394 422.821 345.764 421.584 345.764H398.606Z" fill="#3F68A2"/>
<path d="M398.606 345.764C398.606 345.764 402.571 347.896 403.885 351.402L427.352 351.612C427.352 351.612 426.433 346.592 421.589 345.764H398.606Z" fill="#BCD9FF"/>
<path d="M279.787 301.756C290.173 319.816 303.238 326.784 303.238 326.784H357.586C357.581 326.789 271.863 287.978 279.787 301.756Z" fill="url(#paint0_linear)"/>
<path d="M321.525 441.488C322.943 443.11 323.123 444.921 322.423 446.856C322.423 446.864 322.419 446.873 322.41 446.881C321.113 450.46 316.831 454.455 311.857 458.445C311.222 458.956 310.655 459.424 310.165 459.857C310.036 459.969 309.908 460.084 309.787 460.196C309.688 460.282 309.59 460.376 309.495 460.458C304.857 464.731 306.6 465.71 298.268 474.377C288.768 484.255 282.222 484.431 280.363 483.534C278.787 482.766 281.986 477.527 285.534 471.64C285.706 471.356 285.873 471.069 286.049 470.782C286.522 470.001 286.99 469.202 287.458 468.417C291.611 461.329 290.546 458.008 289.558 447.461C288.759 438.892 276.214 399.584 276.214 399.584L294.424 396.451C294.424 396.451 299.909 427.753 305.952 432.572C309.182 435.142 312.798 435.172 315.903 437.077C316.122 437.21 316.337 437.343 316.547 437.485C318.308 438.656 320.108 439.862 321.525 441.488Z" fill="url(#paint1_linear)"/>
<path d="M321.525 441.488C322.943 443.11 323.123 444.921 322.423 446.856C322.423 446.865 322.419 446.873 322.41 446.882C320.821 450.456 316.646 454.434 311.84 458.411C311.213 458.93 310.659 459.411 310.165 459.857C310.037 459.969 309.908 460.085 309.787 460.196C309.689 460.282 309.59 460.376 309.495 460.458C304.857 464.732 306.601 465.71 298.268 474.377C288.768 484.255 282.223 484.431 280.363 483.534C278.787 482.766 281.986 477.527 285.534 471.64C287.385 470.962 295.975 467.478 302.473 459.171C308.194 451.876 312.012 442.505 315.908 437.077C316.127 437.21 316.342 437.343 316.552 437.485C318.309 438.656 320.108 439.862 321.525 441.488Z" fill="url(#paint2_linear)"/>
<path d="M132.755 420.527C133.605 420.433 134.456 420.325 135.31 420.222C142.934 419.266 148.517 414.353 155.441 410.315C161.999 406.492 171.787 390.916 171.787 390.916L189.259 392.298C189.259 392.298 180.089 406.209 176.546 412.259C174.459 415.816 174.57 420.519 174.832 424.153C174.97 426.127 175.099 428.148 174.699 430.121C173.574 435.738 165.564 434.798 156.613 432.614C147.663 430.43 149.789 433.026 137.05 431.619C124.311 430.212 120.45 425.466 120.063 423.574" fill="url(#paint3_linear)"/>
<path d="M132.819 420.655C132.819 420.655 140.46 426.066 151.064 426.319C159.706 426.529 168.862 424.054 174.832 424.152C174.97 426.126 175.099 428.147 174.699 430.121C173.574 435.738 165.564 434.798 156.613 432.614C147.663 430.43 149.789 433.026 137.05 431.618C124.311 430.211 120.45 425.465 120.063 423.573" fill="url(#paint4_linear)"/>
<path d="M241.653 318.512L257.986 362.42L279.311 419.75C279.311 419.75 285.096 420.308 290.641 418.716C295.743 417.244 301.597 413.387 301.597 413.387C301.597 413.387 295.674 351.83 284.632 316.495C281.802 307.424 278.628 300.087 275.127 295.959C257.999 275.745 241.653 318.512 241.653 318.512Z" fill="url(#paint5_linear)"/>
<path d="M258.257 248.781C268.956 245.331 299.475 249.76 330.133 255.754L336.553 245.177L402.768 240.011C402.768 240.011 424.621 288.42 412.655 319.267C410.898 323.802 407.402 326.707 401.45 326.806C401.45 326.81 400.483 326.802 400.483 326.806C400.483 326.806 361.073 326.785 348.274 326.785C315.345 326.785 278.581 304.167 273.826 303.219C266.044 301.666 262.93 317.216 255.143 333.547C247.361 349.878 181.975 405.869 181.975 405.869C181.975 405.869 171.925 405.968 167.776 404.415C163.314 402.741 161.677 400.57 161.677 400.57C161.677 400.57 234.128 256.561 258.257 248.781Z" fill="#A8CEFF"/>
<path d="M336.94 154.078C360.519 167.05 408.356 193.94 408.605 193.764C408.605 193.764 426.188 200.385 436.161 193.764C452.787 182.733 461.703 153.049 431.299 127.501C416.138 114.761 405.362 111.659 403.726 91.3118C402.837 80.2757 387.732 43.8507 362.641 47.2191C360.545 47.5022 347.639 48.103 339.156 52.5526C317.54 63.8933 301.588 149.058 336.94 154.078Z" fill="url(#paint6_linear)"/>
<path d="M356.701 143.038C356.598 143.107 368.301 147.097 376.131 143.634C383.492 140.382 389.072 128.282 388.964 128.273C385.614 128.119 381.938 125.192 379.103 105.995L377.677 106.506L353.694 115.126C353.694 115.126 355.434 122.815 356.555 130.131C357.504 136.28 358.011 142.167 356.701 143.038Z" fill="url(#paint7_linear)"/>
<path d="M353.699 115.13C353.699 115.13 355.438 122.82 356.559 130.136C370.333 127.66 375.74 113.946 377.677 106.506L353.699 115.13Z" fill="#7996BE"/>
<path d="M350.125 122.759C350.125 122.759 382.934 118.361 379.881 97.9879C376.823 77.615 379 63.3308 357.921 65.2745C336.841 67.2226 333.946 75.6026 333.315 82.6524C332.675 89.698 341.51 123.377 350.125 122.759Z" fill="url(#paint8_linear)"/>
<path d="M334.509 71.4878C334.509 71.4878 355.511 89.5694 369.8 91.0283C384.089 92.4872 389.497 87.9046 389.497 87.9046C389.497 87.9046 381.074 80.9191 376.006 69.647C374.512 66.3259 371.359 64.0432 367.726 63.7299C357.521 62.8503 338.185 62.447 334.509 71.4878Z" fill="url(#paint9_linear)"/>
<path d="M347.639 69.8664C347.639 69.8664 340.612 76.6545 338.4 81.6877C336.266 86.5449 335.626 98.1645 337.327 102.781C337.327 102.781 326.379 81.516 332.576 71.1794C339.148 60.2248 347.639 69.8664 347.639 69.8664Z" fill="url(#paint10_linear)"/>
<path d="M329.076 191.323C330.068 257.676 329.347 243.813 336.614 250.107C338.366 251.622 343.288 252.527 349.765 252.952C370.131 254.304 405.929 250.952 407.291 247.189C411.99 234.18 408.674 230.138 412.591 210.219C412.999 208.1 413.506 205.808 414.098 203.311C417.367 189.632 420.545 184.976 408.953 162.999C398.439 143.089 387.517 126.93 386.534 127.513C358.797 143.964 356.559 130.135 356.559 130.135C356.559 130.135 328.587 158.957 329.076 191.323Z" fill="white"/>
<path d="M257.982 362.42L279.306 419.75C279.306 419.75 285.091 420.308 290.636 418.716C295.739 417.244 301.593 413.387 301.593 413.387C301.593 413.387 295.67 351.83 284.628 316.495L257.982 362.42Z" fill="url(#paint11_linear)"/>
<path d="M356.559 130.135C356.559 130.135 328.019 134.971 324.665 147.247C321.315 159.523 301.588 231.699 301.588 231.699C301.588 231.699 316.097 234.304 322.801 227.606C329.505 220.908 346.122 165.478 346.122 165.478L356.559 130.135Z" fill="white"/>
<path d="M349.76 252.956C370.127 254.308 405.925 250.957 407.286 247.194C411.985 234.184 408.669 230.142 412.586 210.224L402.768 182.591C402.768 182.591 404.392 213.365 395.308 221.457C386.233 229.55 358.118 237.08 353.699 243.843C351.568 247.087 350.168 250.343 349.76 252.956Z" fill="#E6E7E8"/>
<path d="M373.094 240.015C373.094 240.015 353.003 235.544 349.76 237.329C346.518 239.11 338.593 245.598 337.601 247.854C336.609 250.111 344.817 246.142 347.488 245.426C349.219 244.962 353.772 246.541 356.022 247.292C365.505 250.45 371.316 248.824 371.316 248.824L373.094 240.015Z" fill="url(#paint12_linear)"/>
<path d="M386.55 127.501C386.55 127.501 413.531 129.162 422.868 142.176C436.015 160.493 462.094 238.565 447.147 248.979C430.316 260.706 370.539 252.047 370.539 252.047C370.539 252.047 368.55 242.757 371.316 238.265C374.082 233.772 419.059 226.512 421.137 224.44C423.212 222.367 395.192 183.999 395.192 177.777C395.192 171.555 386.55 127.501 386.55 127.501Z" fill="white"/>
<path d="M348.79 242.911C348.79 242.911 344.581 248.335 343.202 248.983C341.824 249.631 340.93 249.468 340.93 249.468L343.769 244.366L348.79 242.911Z" fill="#F6C49F"/>
<path d="M349.76 237.325L337.52 243.264C337.52 243.264 338.039 244.113 339.547 244.045C341.054 243.976 344.855 242.586 344.855 242.586L349.76 237.325Z" fill="#F6C49F"/>
<path d="M343.197 257.298H246.377L217.249 184.938H313.923L343.197 257.298Z" fill="url(#paint13_linear)"/>
<path d="M245.243 254.479H373.094V257.299H246.377L245.243 254.479Z" fill="#3F68A2"/>
<path d="M270.82 221.118C270.09 218.573 271.563 216.514 274.11 216.514C276.657 216.514 279.311 218.578 280.041 221.118C280.771 223.662 279.298 225.722 276.751 225.722C274.204 225.722 271.546 223.662 270.82 221.118Z" fill="url(#paint14_linear)"/>
</g>
<g clip-path="url(#clip1)">
<path d="M68.5107 59.6818L174.28 74.7686L104.09 26.9248L100.519 42.2635L74.8012 46.92L68.5107 59.6818Z" fill="#F9D3B8"/>
<path d="M174.28 74.7685L86.2649 29.3853L0 25.0518L174.28 74.7685Z" fill="#FBE0CD"/>
<path d="M104.09 26.9251L174.28 74.7689L119.945 0L104.09 26.9251Z" fill="#FBE0CD"/>
</g>
<defs>
<linearGradient id="paint0_linear" x1="279.27" y1="312.793" x2="357.582" y2="312.793" gradientUnits="userSpaceOnUse">
<stop stop-color="#2E5B9A"/>
<stop offset="1" stop-color="#3F68A2"/>
</linearGradient>
<linearGradient id="paint1_linear" x1="276.21" y1="440.166" x2="322.82" y2="440.166" gradientUnits="userSpaceOnUse">
<stop stop-color="#F9D3B8"/>
<stop offset="1" stop-color="#FBE0CD"/>
</linearGradient>
<linearGradient id="paint2_linear" x1="279.946" y1="460.48" x2="322.821" y2="460.48" gradientUnits="userSpaceOnUse">
<stop stop-color="#2E5B9A"/>
<stop offset="1" stop-color="#3F68A2"/>
</linearGradient>
<linearGradient id="paint3_linear" x1="120.057" y1="412.621" x2="189.26" y2="412.621" gradientUnits="userSpaceOnUse">
<stop stop-color="#F9D3B8"/>
<stop offset="1" stop-color="#FBE0CD"/>
</linearGradient>
<linearGradient id="paint4_linear" x1="120.057" y1="427.49" x2="174.964" y2="427.49" gradientUnits="userSpaceOnUse">
<stop stop-color="#2E5B9A"/>
<stop offset="1" stop-color="#3F68A2"/>
</linearGradient>
<linearGradient id="paint5_linear" x1="241.651" y1="355.189" x2="301.59" y2="355.189" gradientUnits="userSpaceOnUse">
<stop stop-color="#2E5B9A"/>
<stop offset="1" stop-color="#3F68A2"/>
</linearGradient>
<linearGradient id="paint6_linear" x1="316.164" y1="121.853" x2="451.395" y2="121.853" gradientUnits="userSpaceOnUse">
<stop stop-color="#2E5B9A"/>
<stop offset="1" stop-color="#3F68A2"/>
</linearGradient>
<linearGradient id="paint7_linear" x1="353.697" y1="125.52" x2="388.965" y2="125.52" gradientUnits="userSpaceOnUse">
<stop stop-color="#F9D3B8"/>
<stop offset="1" stop-color="#FBE0CD"/>
</linearGradient>
<linearGradient id="paint8_linear" x1="333.28" y1="93.9323" x2="380.08" y2="93.9323" gradientUnits="userSpaceOnUse">
<stop stop-color="#F9D3B8"/>
<stop offset="1" stop-color="#FBE0CD"/>
</linearGradient>
<linearGradient id="paint9_linear" x1="334.508" y1="77.3054" x2="389.494" y2="77.3054" gradientUnits="userSpaceOnUse">
<stop stop-color="#2E5B9A"/>
<stop offset="1" stop-color="#3F68A2"/>
</linearGradient>
<linearGradient id="paint10_linear" x1="330.673" y1="84.3637" x2="347.638" y2="84.3637" gradientUnits="userSpaceOnUse">
<stop stop-color="#2E5B9A"/>
<stop offset="1" stop-color="#3F68A2"/>
</linearGradient>
<linearGradient id="paint11_linear" x1="257.984" y1="368.171" x2="301.59" y2="368.171" gradientUnits="userSpaceOnUse">
<stop stop-color="#2E5B9A"/>
<stop offset="1" stop-color="#3F68A2"/>
</linearGradient>
<linearGradient id="paint12_linear" x1="337.521" y1="243.075" x2="373.095" y2="243.075" gradientUnits="userSpaceOnUse">
<stop stop-color="#F9D3B8"/>
<stop offset="1" stop-color="#FBE0CD"/>
</linearGradient>
<linearGradient id="paint13_linear" x1="217.251" y1="221.117" x2="343.198" y2="221.117" gradientUnits="userSpaceOnUse">
<stop stop-color="#2E5B9A"/>
<stop offset="1" stop-color="#3F68A2"/>
</linearGradient>
<linearGradient id="paint14_linear" x1="270.631" y1="221.117" x2="280.225" y2="221.117" gradientUnits="userSpaceOnUse">
<stop stop-color="#6B8BB7"/>
<stop offset="1" stop-color="#7996BE"/>
</linearGradient>
<clipPath id="clip0">
<rect width="424.866" height="451.38" fill="white" transform="translate(85 47)"/>
</clipPath>
<clipPath id="clip1">
<rect width="174.28" height="74.7689" fill="white"/>
</clipPath>
</defs>
</svg>
