<svg width="595" height="359" viewBox="0 0 595 359" fill="none" xmlns="http://www.w3.org/2000/svg">
<path d="M218.063 348.015C66.5815 339.158 -54.9334 178.872 25.699 85.882C88.2071 13.7453 171.568 118.732 249.369 65.8526C368.979 -15.5522 562.785 -30.3811 588.427 72.2373C614.068 174.856 529.111 335.142 465.779 344.771C402.447 354.399 218.063 348.015 218.063 348.015Z" fill="#E7F3FE"/>
<path d="M237.732 130.781C239.329 169.243 238.917 190.096 224.911 206.11C210.906 222.123 171.62 218.158 171.62 218.158C171.62 218.158 167.758 274.797 112.819 277.217C57.9314 279.637 50.002 206.676 93.0471 187.985C133.981 170.17 147.008 165.021 161.168 120.895C174.091 80.63 214.459 88.3019 224.088 105.139C233.716 121.925 237.732 130.781 237.732 130.781Z" fill="#303C60"/>
<path d="M219.711 327.161C219.711 327.161 245.61 332.259 246.949 331.95C248.288 331.692 276.607 319.129 279.542 320.982C282.477 322.836 299.571 330.045 303.33 331.692C307.088 333.288 301.167 333.855 298.232 333.855C295.297 333.855 278.46 326.904 276.607 328.242C274.753 329.581 291.281 332.259 291.281 333.34C291.281 334.421 246.949 344.565 244.271 344.565C241.594 344.565 221.05 342.711 221.05 342.711L219.711 327.161Z" fill="#E38540"/>
<path d="M198.188 185.617C212.142 188.346 220.38 203.124 223.058 216.047C225.684 229.023 198.188 185.617 198.188 185.617Z" fill="#6791C9"/>
<path d="M174.812 175.628C174.812 175.628 147.935 193.649 133.518 202.505C119.101 211.31 138.718 306.308 143.558 341.578C148.347 376.849 231.759 344.771 231.759 344.771C231.759 344.771 226.147 315.113 233.356 267.434C238.505 233.245 219.608 211.877 208.795 197.048C181.403 159.615 174.812 175.628 174.812 175.628Z" fill="#75A1DE"/>
<path d="M148.347 202.917C179.189 240.608 189.641 247.662 182.021 273.046C175.997 293.075 173.988 300.284 172.804 307.132C171.62 313.929 230.112 302.704 230.112 302.704L229.7 324.741C229.7 324.741 183.617 346.779 161.168 351.207C138.718 355.635 124.713 350.383 124.713 350.383L148.347 202.917Z" fill="#6791C9"/>
<path d="M534.826 353.833H169.663C167.037 353.833 164.875 351.67 164.875 349.044C164.875 346.418 167.037 344.256 169.663 344.256H534.826C537.452 344.256 539.615 346.418 539.615 349.044C539.563 351.67 537.452 353.833 534.826 353.833Z" fill="#2E5B9A"/>
<path d="M184.698 137.68L170.796 178.82C170.796 178.82 186.037 220.115 198.858 210.898C203.234 207.757 197.262 182.836 197.262 182.836L206.633 149.42L184.698 137.68Z" fill="#F09959"/>
<path d="M140.314 201.321C121.109 203.432 119.461 229.383 110.656 272.686C101.852 315.988 104.478 344.565 108.648 350.023C118.689 363.256 231.296 317.173 245.301 317.533C254.981 317.79 246.897 301.52 246.897 301.52L139.542 317.945C139.542 317.945 154.783 267.846 154.783 242.204C154.783 216.511 147.523 200.498 140.314 201.321Z" fill="#F09959"/>
<path d="M240.152 302.292C251.377 299.511 267.802 293.075 270.994 295.856C274.187 298.636 287.42 318.717 291.848 324.329C296.276 329.942 289.84 325.513 285.051 321.137C280.263 316.709 276.246 314.34 276.246 314.34C276.246 314.34 270.222 319.953 264.61 323.145C258.997 326.337 256.989 319.953 247.361 318.356C237.732 316.76 213.687 325.153 213.687 325.153L240.152 302.292Z" fill="#F09959"/>
<path d="M142.477 198.078C130.737 198.592 121.624 208.478 118.431 223.719C115.239 238.96 105.868 287.309 105.868 287.309C105.868 287.309 104.014 288.647 123.529 292.097C143.043 295.547 159.057 291.582 159.057 291.582C159.057 291.582 163.073 264.035 161.991 245.087C160.91 226.139 156.637 208.221 149.686 202.042C142.734 195.966 142.477 198.078 142.477 198.078Z" fill="#75A1DE"/>
<path d="M197.262 182.888L206.633 149.472L184.698 137.732L181.351 147.618C180.631 180.777 189.126 191.899 194.842 195.966C196.644 197.254 198.188 196.275 199.476 194.164C198.497 188.14 197.262 182.888 197.262 182.888Z" fill="#E38540"/>
<path d="M241.748 141.594C241.748 159.46 239.637 181.395 224.087 180.88C200.042 180.056 184.904 161.365 184.904 143.499C184.904 125.632 197.467 111.112 212.966 111.112C228.516 111.112 241.748 123.727 241.748 141.594Z" fill="#F09959"/>
<path d="M421.189 344.256H331.031L368.103 262.696C369.185 260.328 371.553 258.783 374.179 258.783H455.996C457.901 258.783 459.137 260.74 458.364 262.439L421.189 344.256Z" fill="#9BD6E8"/>
<path d="M421.035 344.256H254.724C254.724 338.437 259.409 333.752 265.228 333.752H421.035V344.256Z" fill="#9BD6E8"/>
<path d="M455.996 258.783H383.911C381.285 258.783 378.916 260.328 377.835 262.696L340.762 344.256H421.189L458.364 262.439C459.188 260.74 457.901 258.783 455.996 258.783Z" fill="#7BCEE8"/>
<path d="M215.283 104.882C232.326 103.697 242.418 119.247 245.353 132.892C247.464 142.726 246.434 144.631 246.434 144.631C246.434 144.631 244.58 147.309 231.193 148.081C217.857 148.905 216.21 148.596 216.21 148.596L215.386 133.098L211.37 148.081C211.37 148.081 209.207 151.016 200.969 147C192.679 142.984 188.92 129.648 188.92 129.648C188.92 129.648 187.067 120.843 193.451 114.974C199.939 109.104 215.283 104.882 215.283 104.882Z" fill="#303C60"/>
<path d="M202.617 145.095C200.969 155.907 192.37 163.579 183.36 162.189C174.349 160.85 168.376 150.965 170.024 140.152C171.671 129.339 180.27 121.667 189.281 123.057C198.24 124.447 204.264 134.282 202.617 145.095Z" fill="#D54A41"/>
<path d="M196.077 144.837C194.584 154.826 187.479 162.086 180.27 161.005C173.062 159.924 168.428 150.913 169.921 140.924C171.414 130.935 178.52 123.675 185.728 124.757C192.988 125.838 197.622 134.797 196.077 144.837Z" fill="#F39892"/>
<path d="M185.059 142.572C184.235 148.081 181.249 152.2 178.365 151.737C175.482 151.325 173.834 146.485 174.658 140.976C175.482 135.466 178.468 131.347 181.351 131.81C184.235 132.274 185.883 137.062 185.059 142.572Z" fill="#F2E5DE"/>
<path d="M184.595 123.366C192.422 94.3264 219.402 98.5486 226.199 102.616C231.965 106.015 232.738 110.855 232.738 110.855C232.738 110.855 225.323 104.83 212.708 107.044C200.711 109.155 193.606 116.209 192.576 124.036C192.113 127.949 184.595 123.366 184.595 123.366Z" fill="#D54A41"/>
<path d="M64.728 217.128H64.6765C64.3161 217.077 64.1101 216.819 64.1101 216.459C64.831 209.096 68.4867 201.578 74.4595 195.194C81.2046 187.985 90.8331 182.321 102.212 178.769C127.648 170.891 149.84 160.902 163.794 117.96C163.897 117.651 164.257 117.445 164.566 117.548C164.875 117.651 165.081 118.011 164.978 118.32C158.593 138.041 149.84 152.406 138.306 162.241C128.111 170.891 116.681 175.576 102.573 179.953C91.348 183.403 81.9254 188.964 75.3348 196.018C69.568 202.196 66.0152 209.508 65.3459 216.562C65.2944 216.922 65.0369 217.128 64.728 217.128Z" fill="#303C60"/>
<path d="M76.2101 187.47C76.0042 187.47 75.8497 187.367 75.7467 187.213C75.5408 186.955 75.5922 186.544 75.8497 186.338C75.9527 186.235 86.8169 177.945 102.573 174.443C132.745 167.801 153.032 149.626 161.168 121.976C161.271 121.667 161.631 121.461 161.94 121.564C162.249 121.667 162.455 122.027 162.352 122.336C157.306 139.431 147.832 152.921 134.187 162.446C125.382 168.574 114.827 173.002 102.83 175.679C87.3833 179.078 76.725 187.264 76.622 187.316C76.4676 187.47 76.3131 187.47 76.2101 187.47Z" fill="#303C60"/>
<path d="M463.101 178.614H381.748C380.976 178.614 380.615 177.996 380.873 177.224L397.401 131.862C397.658 131.09 398.534 130.472 399.306 130.472H480.711C481.483 130.472 481.843 131.09 481.586 131.862L465.058 177.224C464.749 177.996 463.874 178.614 463.101 178.614Z" fill="#9EC8FF"/>
<path d="M462.123 176.503H384.271C383.55 176.503 383.19 175.937 383.447 175.216L398.482 133.922C398.74 133.201 399.512 132.634 400.233 132.634H478.136C478.857 132.634 479.217 133.201 478.96 133.922L463.925 175.216C463.616 175.937 462.844 176.503 462.123 176.503Z" fill="white"/>
<path d="M460.733 173.826H387.618C386.794 173.826 386.382 173.156 386.691 172.384L399.667 136.753C399.975 135.929 400.851 135.312 401.623 135.312H474.738C475.562 135.312 475.974 135.981 475.665 136.753L462.69 172.384C462.432 173.156 461.557 173.826 460.733 173.826Z" fill="#9EC8FF"/>
<path d="M438.35 163.145C445.14 157.479 447.44 149.045 443.486 144.307C439.532 139.569 430.823 140.322 424.033 145.988C417.242 151.654 414.943 160.088 418.896 164.826C422.85 169.564 431.56 168.812 438.35 163.145Z" fill="white"/>
<path d="M442.712 154.569C440.395 160.902 433.392 166.051 427.007 166.051C420.674 166.051 417.379 160.902 419.696 154.569C422.013 148.236 429.016 143.087 435.4 143.087C441.733 143.035 444.977 148.184 442.712 154.569Z" fill="#9EC8FF"/>
<path d="M437.099 153.951L432.002 156.371L426.904 158.791L428.655 153.951L430.457 149.06L433.752 151.531L437.099 153.951Z" fill="white"/>
<path d="M339.887 127.588H333.451C332.112 127.588 330.98 127.022 330.31 126.095C329.589 125.065 329.486 123.727 330.001 122.336L332.318 115.9C333.245 113.429 335.871 111.472 338.394 111.472H344.83C346.169 111.472 347.302 112.039 347.971 112.965C348.692 113.995 348.795 115.334 348.28 116.724L345.963 123.16C345.088 125.632 342.41 127.588 339.887 127.588ZM338.446 113.944C337.004 113.944 335.253 115.231 334.687 116.724L332.37 123.16C332.164 123.778 332.164 124.293 332.421 124.653C332.679 125.014 333.142 125.117 333.503 125.117H339.939C341.432 125.117 343.131 123.83 343.697 122.336L346.014 115.9C346.22 115.282 346.22 114.767 345.963 114.407C345.706 114.047 345.242 113.944 344.882 113.944H338.446Z" fill="#9CD499"/>
<path d="M330.001 154.826H323.565C322.226 154.826 321.094 154.26 320.424 153.333C319.703 152.303 319.6 150.964 320.115 149.574L322.432 143.138C323.359 140.667 325.985 138.71 328.508 138.71H334.944C336.283 138.71 337.416 139.276 338.085 140.203C338.806 141.233 338.909 142.572 338.394 143.962L336.077 150.398C335.15 152.921 332.473 154.826 330.001 154.826ZM328.508 141.233C327.066 141.233 325.316 142.52 324.749 144.013L322.432 150.45C322.226 151.067 322.226 151.582 322.484 151.943C322.741 152.303 323.205 152.406 323.565 152.406H330.001C331.494 152.406 333.194 151.119 333.76 149.626L336.077 143.19C336.283 142.572 336.283 142.057 336.025 141.696C335.768 141.336 335.305 141.233 334.944 141.233H328.508Z" fill="#9CD499"/>
<path d="M320.064 182.116H313.628C312.289 182.116 311.156 181.549 310.487 180.622C309.766 179.593 309.663 178.254 310.178 176.864L312.546 170.428C313.473 167.956 316.099 166 318.622 166H325.058C326.397 166 327.53 166.566 328.199 167.493C328.92 168.522 329.023 169.861 328.508 171.251L326.191 177.688C325.264 180.159 322.587 182.116 320.064 182.116ZM318.622 168.471C317.129 168.471 315.43 169.758 314.863 171.251L312.546 177.688C312.34 178.305 312.34 178.82 312.598 179.181C312.855 179.541 313.319 179.644 313.679 179.644H320.115C321.608 179.644 323.308 178.357 323.874 176.864L326.191 170.428C326.397 169.81 326.397 169.295 326.139 168.934C325.882 168.574 325.419 168.471 325.058 168.471H318.622Z" fill="#9EC8FF"/>
<path d="M392.664 122.336H357.394C356.724 122.336 356.364 121.77 356.621 121.152C356.879 120.483 357.6 119.968 358.269 119.968H393.539C394.209 119.968 394.569 120.534 394.312 121.152C394.054 121.821 393.333 122.336 392.664 122.336Z" fill="#9EC8FF"/>
<path d="M390.913 127.177H355.643C354.974 127.177 354.613 126.61 354.871 125.992C355.128 125.323 355.849 124.808 356.518 124.808H391.789C392.458 124.808 392.818 125.374 392.561 125.992C392.303 126.61 391.583 127.177 390.913 127.177Z" fill="#9EC8FF"/>
<path d="M383.499 147.618H348.228C347.559 147.618 347.199 147.052 347.456 146.434C347.713 145.764 348.434 145.25 349.104 145.25H384.374C385.043 145.25 385.404 145.816 385.146 146.434C384.889 147.052 384.117 147.618 383.499 147.618Z" fill="#9EC8FF"/>
<path d="M381.748 152.406H346.478C345.809 152.406 345.448 151.84 345.706 151.222C345.963 150.553 346.684 150.038 347.353 150.038H382.623C383.293 150.038 383.653 150.604 383.396 151.222C383.138 151.84 382.366 152.406 381.748 152.406Z" fill="#9EC8FF"/>
<path d="M373.252 175.628H337.982C337.313 175.628 336.952 175.061 337.21 174.444C337.467 173.774 338.188 173.259 338.857 173.259H374.128C374.797 173.259 375.157 173.826 374.9 174.444C374.642 175.113 373.922 175.628 373.252 175.628Z" fill="#9EC8FF"/>
<path d="M371.502 180.468H336.232C335.562 180.468 335.202 179.902 335.459 179.284C335.717 178.615 336.438 178.1 337.107 178.1H372.377C373.046 178.1 373.407 178.666 373.149 179.284C372.892 179.902 372.171 180.468 371.502 180.468Z" fill="#9EC8FF"/>
<path d="M338.394 123.984C338.291 123.984 338.188 123.984 338.085 123.933C337.725 123.83 337.416 123.572 337.261 123.212L334.841 117.187C334.584 116.57 334.893 115.849 335.511 115.591C336.129 115.334 336.849 115.643 337.107 116.261L338.909 120.74L353.223 109.721C353.738 109.31 354.562 109.413 354.974 109.927C355.386 110.442 355.283 111.266 354.768 111.678L339.166 123.727C338.96 123.881 338.703 123.984 338.394 123.984Z" fill="#F37168"/>
<path d="M328.508 151.222C328.405 151.222 328.302 151.222 328.199 151.17C327.839 151.067 327.53 150.81 327.375 150.449L324.955 144.425C324.698 143.807 325.007 143.086 325.625 142.829C326.243 142.572 326.963 142.881 327.221 143.498L329.023 147.978L343.337 136.959C343.852 136.547 344.676 136.65 345.088 137.165C345.5 137.68 345.397 138.504 344.882 138.916L329.28 150.964C329.023 151.119 328.766 151.222 328.508 151.222Z" fill="#F37168"/>
<path d="M561.703 90.6705H426.235L429.736 81.042H565.205L561.703 90.6705Z" fill="#9EC8FF"/>
<path d="M556.451 105.088H420.983L424.484 95.5107H559.953L556.451 105.088Z" fill="#9EC8FF"/>
<path d="M406.309 220.475H306.831C305.544 220.475 304.874 219.394 305.338 218.107C305.801 216.82 307.243 215.738 308.582 215.738H408.059C409.346 215.738 410.016 216.82 409.552 218.107C409.037 219.394 407.596 220.475 406.309 220.475Z" fill="#9EC8FF"/>
<path d="M402.498 230.979H302.969C301.682 230.979 301.013 229.898 301.476 228.611C301.94 227.323 303.381 226.242 304.72 226.242H404.198C405.485 226.242 406.154 227.323 405.691 228.611C405.227 229.898 403.786 230.979 402.498 230.979Z" fill="#9EC8FF"/>
<path d="M495.591 319.798C495.591 318.15 515.672 262.542 502.079 226.808C492.553 201.784 491.06 171.714 491.06 171.714C491.06 171.714 472.524 198.283 485.036 238.857C492.759 263.829 495.9 270.728 496.569 278.091C497.239 285.454 493.583 322.166 493.583 322.166L495.591 319.798Z" fill="#9CD499"/>
<path d="M493.583 322.733C493.48 322.733 493.428 322.733 493.326 322.682C493.068 322.579 492.914 322.321 492.965 322.064C493.017 321.703 496.621 285.3 495.951 278.092C495.54 273.303 494.046 268.772 490.803 258.835C489.155 253.737 487.095 247.404 484.469 238.96C477.982 217.849 479.938 200.6 482.77 189.839C485.808 178.151 490.391 171.56 490.545 171.303C490.7 171.097 490.957 170.994 491.214 171.045C491.472 171.097 491.626 171.354 491.678 171.612C491.678 171.921 493.274 201.836 502.645 226.499C507.743 239.887 508.772 257.496 505.683 278.916C503.211 296.01 498.886 310.633 496.981 316.863C496.569 318.305 496.209 319.489 496.157 319.747C496.157 319.901 496.106 320.004 496.003 320.107L493.995 322.424C493.943 322.682 493.789 322.733 493.583 322.733ZM490.597 173.62C489.052 176.246 486.117 182.013 483.954 190.199C481.174 200.806 479.217 217.798 485.654 238.599C488.28 247.044 490.339 253.377 491.987 258.423C495.282 268.463 496.775 272.994 497.187 277.937C497.754 284.373 495.128 312.435 494.355 320.159L494.973 319.438C495.025 319.077 495.282 318.357 495.797 316.503C507.382 277.68 509.339 247.559 501.461 226.911C493.48 205.801 491.111 180.725 490.597 173.62Z" fill="#74B570"/>
<path d="M499.968 325.462C496.981 263.675 511.656 229.949 541.726 203.226C571.795 176.503 573.134 169.5 573.134 169.5C573.134 169.5 568.449 221.608 551.097 239.629C533.745 257.65 508.361 271.038 504.653 280.357C500.998 289.728 502.336 321.085 502.336 321.085L500.019 326.749V325.462H499.968Z" fill="#9CD499"/>
<path d="M496.261 330.817C495.952 329.838 502.594 273.046 527 269.699C551.354 266.352 557.07 272.016 573.752 269.39C585.646 267.485 594.811 263.726 594.811 263.726C594.811 263.726 588.478 279.842 566.75 286.433C551.406 291.118 531.376 283.447 519.688 285.455C508 287.463 501.976 312.487 501.976 312.487L499.968 325.513L496.261 330.817Z" fill="#9CD499"/>
<path d="M499.607 322.424C499.299 322.424 499.041 322.167 498.99 321.858C498.938 321.446 495.488 281.593 512.428 251.06C521.182 235.304 530.707 226.139 539.975 217.283C548.574 209.045 556.709 201.27 562.888 188.964C563.042 188.655 563.403 188.552 563.712 188.706C564.021 188.861 564.124 189.221 563.969 189.53C557.688 202.042 549.501 209.868 540.851 218.21C531.685 226.963 522.211 236.076 513.561 251.678C496.827 281.851 500.225 321.394 500.277 321.806C500.328 322.167 500.071 322.424 499.71 322.476C499.659 322.373 499.607 322.424 499.607 322.424Z" fill="#74B570"/>
<path d="M497.96 314.392C497.908 314.392 497.857 314.392 497.805 314.392C497.496 314.289 497.29 313.928 497.393 313.619C503.778 291.582 511.141 278.71 520.46 273.149C528.802 268.154 537.452 269.699 546.617 271.295C548.883 271.707 551.2 272.119 553.465 272.376C573.34 275.002 583.072 270.162 583.175 270.111C583.484 269.956 583.844 270.059 583.998 270.368C584.153 270.677 584.05 271.038 583.741 271.192C583.329 271.398 573.649 276.238 553.311 273.612C550.994 273.303 548.677 272.891 546.411 272.479C537.503 270.883 529.059 269.39 521.078 274.178C512.016 279.585 504.859 292.2 498.526 313.928C498.475 314.186 498.217 314.392 497.96 314.392Z" fill="#74B570"/>
<path d="M529.832 228.713C529.626 228.713 529.471 228.61 529.317 228.456C529.111 228.198 529.162 227.786 529.42 227.58C529.523 227.477 541.417 218.415 557.893 215.274C558.254 215.223 558.563 215.429 558.614 215.789C558.666 216.15 558.46 216.459 558.099 216.51C541.88 219.6 530.244 228.507 530.141 228.559C530.089 228.662 529.986 228.713 529.832 228.713Z" fill="#74B570"/>
<path d="M510.987 255.591C510.884 255.591 510.781 255.539 510.678 255.488C510.369 255.333 510.266 254.921 510.472 254.664C519.173 239.989 529.368 236.282 551.56 229.331C551.869 229.228 552.23 229.434 552.333 229.743C552.435 230.052 552.23 230.412 551.921 230.515C530.038 237.363 519.997 241.019 511.501 255.282C511.398 255.488 511.193 255.591 510.987 255.591Z" fill="#74B570"/>
<path d="M505.58 346.006H490.648C485.396 346.006 480.865 342.247 479.887 337.099L475.098 311.972H521.181L516.393 337.099C515.363 342.247 510.832 346.006 505.58 346.006Z" fill="#F39892"/>
<path d="M519.997 318.356H476.592C475.922 318.356 475.356 317.79 475.356 317.121C475.356 316.451 475.922 315.885 476.592 315.885H519.997C520.667 315.885 521.233 316.451 521.233 317.121C521.233 317.79 520.667 318.356 519.997 318.356Z" fill="#D54A41"/>
</svg>
