<?xml version="1.0" encoding="utf-8"?>
<!-- Generator: Adobe Illustrator 25.2.0, SVG Export Plug-In . SVG Version: 6.00 Build 0)  -->
<svg version="1.1" id="Layer_1" xmlns="http://www.w3.org/2000/svg" xmlns:xlink="http://www.w3.org/1999/xlink" x="0px" y="0px"
	 viewBox="0 0 734.8 358.9" style="enable-background:new 0 0 734.8 358.9;" xml:space="preserve">
<style type="text/css">
	.st0{fill:#E7F3FE;}
	.st1{fill:#A2DFF2;}
	.st2{fill:#96CFE0;}
	.st3{fill:#2E5B9A;}
	.st4{fill:#F09959;}
	.st5{fill:#E38540;}
	.st6{fill:#75A1DE;}
	.st7{fill:#A86B48;}
	.st8{fill:#3E6BAB;}
	.st9{fill:#F0CEB4;}
	.st10{fill:#A8CEFF;}
	.st11{fill:#F7A96F;}
	.st12{fill:#B7E1FF;}
	.st13{fill:#FFFFFF;}
	.st14{fill:#9EC8FF;}
	.st15{fill:#9CD499;}
</style>
<path class="st0" d="M36.4,357c0,0-61.6-76.3-24.6-149c36.9-72.6,107.1-55.4,205.6-129.3C337-10.9,420.9-15.9,527.7,23.3
	c60.3,22.2,70.2,113.3,166.2,169.9c86.6,51.1,16,137.9-29.5,151.4c-45.6,13.5-76.3,13.5-76.3,13.5L36.4,357z"/>
<path class="st1" d="M402.9,192.9C387.5,224.1,368.3,309.3,363,314c-5.3,4.7-35.6,22.8-40.9,31.5c-5.3,8.8-2.9,5.8-0.6,6.4
	c2.3,0.6,134.3,1.2,134.3,1.2s-15.2-90.5-16.9-91.1C437.2,261.4,402.9,192.9,402.9,192.9z"/>
<path class="st2" d="M381.1,352.7c24.2,0.2,49.8,0.3,63.9,0.4l-19.3-115.2c-10.3-19.9-22.8-44.9-22.8-44.9c-1.9,3.9-3.9,8.7-6,14.1
	c-2,86.6,10.5,110.8,1.1,126.2C390.7,345.3,384.1,350.7,381.1,352.7z"/>
<path class="st3" d="M655,358.9H21.5c-2.7,0-4.9-2.2-4.9-4.9c0-2.7,2.2-4.9,4.9-4.9H655c2.7,0,4.9,2.2,4.9,4.9
	C659.9,356.7,657.7,358.9,655,358.9z"/>
<path class="st1" d="M483.8,155.2c21.9,20.2,70.7,39.4,70.7,39.4s7.4,68.5,2.4,107.2c-5.1,38.8-2.2,46.6-2.2,46.6H454
	c0,0-13.5-18.7-38.2-77c-15.7-37.1-12.9-78.7-12.9-78.7l61.2-27.5L483.8,155.2z"/>
<path class="st2" d="M454,348.5h100.6c0,0-2.8-7.9,2.2-46.6c4.2-31.9-0.1-84-1.8-101.4l-9.1-3.9c-23,6.6-36.2,40.9-40.1,74.3
	c-2.6,22.4-39.7,44.4-64,56.6C449.9,342.7,454,348.5,454,348.5z"/>
<path class="st3" d="M429.4,85c-12.1,27,2.4,52,2,51c-0.4-1.1,18.4-45.6,18.4-45.6L429.4,85z"/>
<path class="st4" d="M475.3,104.9l15.4,56.2c0.4,1.6,0.1,3.3-1,4.6c-3.6,4.4-8.7,13.6-19.1,16.5c-2,0.6-4.5,0.7-6.5,0.7
	c-2.1,0-3.9-1.5-4.3-3.6l-10.3-53.3L475.3,104.9z"/>
<path class="st5" d="M472.4,109.6l-5.6,2.3l-17.3,14.1l9.3,47.3C474.5,163.5,476.8,156.9,472.4,109.6z"/>
<path class="st4" d="M474.8,129.8c-3.4,18.5-17.2,31-30.9,27.9c-13.7-3.1-20.2-15-18.6-39c1.3-18.8,10.5-39.3,24.2-36.2
	C463.2,85.5,478.2,111.3,474.8,129.8z"/>
<path class="st1" d="M554.5,194.6c20.3,4.6,24.1,45.9,30.7,89.5c0.8,5,4.7,47.5,4.7,47.5s0.4,7.8-7.4,11.7
	c-6.7,3.3-9.3,5.8-47.9,6.2c-37,0.4-84.7-1.2-84.7-1.2s-0.4-13.8,3.4-20.5c5.7-10.1,64.2-24.6,69.7-25.4c0.8-10.9-5.4-50.3,3.1-77.1
	c5.8-18.4,12.1-28,20-30.5C548.7,194,551.5,194,554.5,194.6z"/>
<path class="st2" d="M470.9,349.2c18.2,0.3,43.3,0.5,63.8,0.3c38.5-0.4,41.2-2.9,47.9-6.2c7.8-3.9,8.2-10.5,8.2-10.5
	s-3.9-45.2-4.7-50.2c-4.3-29.2-8.9-62.6-19.7-78.7c10.1,29.7,11.8,54.7,11.9,65.4c0.1,5.4-0.4,12.8-2,18c-1.8,5.7-6.2,9.3-13.2,7.4
	c-14-3.9-31.5,4.3-31.5,4.3s13.2-4.7,25.7-0.4c12.5,4.3,38.1,32.7,10.1,43.2C558.8,345,507.4,347.6,470.9,349.2z"/>
<path class="st2" d="M456.4,329.2c0,0,5.2-8.8,15.8-8.8s9.9,17.4,8.3,23.1c-1.6,5.7-7.8,6-7.8,6l-22.8-1L456.4,329.2z"/>
<path class="st6" d="M433.3,353.4H289.4c-2.2,0-3.9-1.8-3.9-3.9v-1.1c0-2.2,1.8-3.9,3.9-3.9h143.9c2.2,0,3.9,1.8,3.9,3.9v1.1
	C437.2,351.6,435.5,353.4,433.3,353.4z"/>
<path class="st4" d="M453.6,330.2c-22.3-8-28.2-5-33.2-6.5c-12.5-3.6-15.6-0.5-23.6,21.5c-1.6,4.4,3.1,4.7,7.8,4.7
	c4.7,0,10.4-9.1,12.2-10.1c1.8-1,6.7-1.6,6.7-1.6s-1.6,0-3.9,4.7c-2.3,4.7-5.2,6.5-1.6,6.5c3.6,0,4.2-6,10.9-4.7
	c6.7,1.3,4.2,4.7,21,4.4c16.9-0.3,29.6,0,29.3-10.1c-0.3-9.6,0.8-14.4-8.3-16.1C464,321.7,453.6,330.2,453.6,330.2z"/>
<path class="st7" d="M453.9,330.2c14.9-1.7,10.5,16.9,9,18.5c-1.6,1.6,8.3,0.5,8.3,0.5s4.6-7.5,0.7-16c-3.9-8.6-11.7-9-11.7-9
	l-6.6,3.6L453.9,330.2z"/>
<path class="st3" d="M469.4,328.6c-0.2,2.3-4.1,3.9-8.7,3.5c-4.6-0.4-8.2-2.6-8-4.9c0.2-2.3,4.1-3.9,8.7-3.5
	C466,324.1,469.6,326.3,469.4,328.6z"/>
<path class="st8" d="M468.3,327.4c-0.2,2.1-3.7,3.4-7.8,3.1c-4.1-0.3-7.4-2.3-7.2-4.4c0.2-2.1,3.7-3.4,7.8-3.1
	C465.2,323.4,468.4,325.4,468.3,327.4z"/>
<path class="st9" d="M465.7,326.5c-0.1,1.5-2.6,2.5-5.6,2.2c-3-0.2-5.3-1.6-5.2-3.1c0.1-1.5,2.6-2.5,5.6-2.2
	C463.5,323.6,465.8,325,465.7,326.5z"/>
<path class="st6" d="M284.1,324.9h-145c-7.6,0-14.2-5.5-15.5-13.1l-18.9-104.4c-1.8-9.8,5.7-18.9,15.5-18.9h145
	c7.6,0,14.2,5.5,15.5,13.1l18.9,104.4C301.4,315.8,294,324.9,284.1,324.9z"/>
<path class="st10" d="M290.9,306.3l-19.3-102.2c-1.4-7.4-8.1-12.9-15.9-12.9H108.3c-3.1,3.6-4.6,8.5-3.7,13.6l19.6,106.6
	c1.4,7.8,8.2,13.4,16.1,13.4H275C285.1,324.9,292.7,316,290.9,306.3z"/>
<path class="st6" d="M255.9,338.8h-27.5c-4.9,0-8.9-4.4-8.9-9.8v-50.3c0-8.6-6.3-15.5-14.1-15.5H191c-7.8,0-14.1,7-14.1,15.5v56.4
	c0,9.6,7.1,17.4,15.9,17.4l75.1-0.5C267.9,344.7,262.5,338.8,255.9,338.8z"/>
<path class="st10" d="M177.9,279.9v55.5c0,9,7,16.4,15.9,17.1l73.3-0.5c0-1.2-5.8-3.4-12.9-3.4h-29.8c-5.3,0-9.6-4.3-9.6-9.6v-59.1
	c0-8.4-6.9-15.3-15.3-15.3h-6.3C184.8,264.6,177.9,271.4,177.9,279.9z"/>
<path class="st4" d="M331.4,332.4c11.1-6.2,24.6-4.1,29.5,2c4.9,6.2,5.7,10.3-5.3,10.3c-11.1,0-33.2,0.8-36.9,0.4
	C315,344.8,331.4,332.4,331.4,332.4z"/>
<path class="st4" d="M347.8,328.8c11.9-2.9,20,4.1,30,10.7c8.6,5.7,10.3,11.3,0.8,6.6c-14-7-22.2-7.8-22.2-7.8L347.8,328.8z"/>
<path class="st4" d="M336.9,332.4c-6,0-11.3-1.9-15.5-1.6c-4.2,0.4-17.7,14.1-15.6,15.2c0.2,0.1,0.3,0.1,0.5,0.2
	c3.2,1.2,6.8-0.1,8.6-3c1.9-3.1,5-6.6,8.6-5.3c6,2.1,12.3,1.9,12.3,1.9L336.9,332.4z"/>
<path class="st11" d="M333.4,347.2c-6.2-2.5,3.7-23,7-23c3.3,0,15.6,9.8,15.6,9.8s-2.9,1.6-12.7-1.6c-2.5-0.8-4.5,13.1-7.4,14.8
	C333,348.9,333.4,347.2,333.4,347.2z"/>
<path class="st3" d="M425.3,129.5c-0.6,22.6,7.1,26.4,12.5,29.5c5.4,3.1,28.6-2,32-7.6c8.7-14.3,1.4-27.6,3.3-27.4
	c2,0.2,3.7,5.8,8.8,13c0.5,0.7,3.8,5.1,3.9,3.7c2.4-20.2,12.9-26.5,10.4-47c-1.9-15.1-11.4-13.9-11.4-13.9s-6.2-12.6-25.4-11.2
	c-12.9,1-24.4,6-37.6,9.4c-13.3,3.4,15.7,33.5,32.9,22.5c17.2-11,8.7,13.2,11.4,15.1c2.7,1.9,1.3,0.2,2.6,12.6
	c1.2,12.4-14.5,20.5-19,21.5c-14.4,3.4-16.8,1-20-4.4C426.9,140.7,425.3,129.5,425.3,129.5z"/>
<path class="st4" d="M485,122.5c-1.7,5.7-5.7,9.4-9,8.2c-3.3-1.2-3.4-5.8-3-12.4c0.4-6,5.7-9.4,9-8.2
	C485.3,111.3,486.7,116.8,485,122.5z"/>
<path class="st12" d="M169.7,107.2H46.6c-1.3,0-2.4-1.1-2.4-2.4v-53c0-1.3,1.1-2.4,2.4-2.4h123.2c1.3,0,2.4,1.1,2.4,2.4v53
	C172.2,106.1,171.1,107.2,169.7,107.2z"/>
<path class="st13" d="M166.7,104.5H49.6c-1.1,0-2-0.9-2-2v-36c0-1.1,0.9-2,2-2h117.1c1.1,0,2,0.9,2,2v36
	C168.7,103.6,167.8,104.5,166.7,104.5z"/>
<path class="st13" d="M53.4,58.1h-2.8c-0.6,0-1.1-0.5-1.1-1.1v-2.3c0-0.6,0.5-1.1,1.1-1.1h2.8c0.6,0,1.1,0.5,1.1,1.1V57
	C54.4,57.6,54,58.1,53.4,58.1z"/>
<path class="st13" d="M62.5,58.1h-2.8c-0.6,0-1.1-0.5-1.1-1.1v-2.3c0-0.6,0.5-1.1,1.1-1.1h2.8c0.6,0,1.1,0.5,1.1,1.1V57
	C63.6,57.6,63.1,58.1,62.5,58.1z"/>
<path class="st13" d="M71.6,58.1h-2.8c-0.6,0-1.1-0.5-1.1-1.1v-2.3c0-0.6,0.5-1.1,1.1-1.1h2.8c0.6,0,1.1,0.5,1.1,1.1V57
	C72.7,57.6,72.2,58.1,71.6,58.1z"/>
<path class="st12" d="M163.7,73.3h-64c-1.1,0-1.9-0.9-1.9-1.9c0-1.1,0.9-1.9,1.9-1.9h64c1.1,0,1.9,0.9,1.9,1.9
	C165.7,72.5,164.8,73.3,163.7,73.3z"/>
<path class="st12" d="M115.6,102.9h-64c-1.1,0-1.9-0.9-1.9-1.9c0-1.1,0.9-1.9,1.9-1.9h64c1.1,0,1.9,0.9,1.9,1.9
	C117.5,102,116.7,102.9,115.6,102.9z"/>
<path class="st12" d="M127.4,102.9h-6.6c-0.4,0-0.7-0.3-0.7-0.7v-2.5c0-0.4,0.3-0.7,0.7-0.7h6.6c0.4,0,0.7,0.3,0.7,0.7v2.5
	C128,102.6,127.7,102.9,127.4,102.9z"/>
<path class="st12" d="M137.4,102.9h-6.6c-0.4,0-0.7-0.3-0.7-0.7v-2.5c0-0.4,0.3-0.7,0.7-0.7h6.6c0.4,0,0.7,0.3,0.7,0.7v2.5
	C138,102.6,137.7,102.9,137.4,102.9z"/>
<path class="st12" d="M164.4,81.7h-106c-0.7,0-1.3-0.6-1.3-1.3c0-0.7,0.6-1.3,1.3-1.3h106c0.7,0,1.3,0.6,1.3,1.3
	C165.7,81.1,165.1,81.7,164.4,81.7z"/>
<path class="st12" d="M164.4,87.3h-106c-0.7,0-1.3-0.6-1.3-1.3c0-0.7,0.6-1.3,1.3-1.3h106c0.7,0,1.3,0.6,1.3,1.3
	C165.7,86.7,165.1,87.3,164.4,87.3z"/>
<path class="st14" d="M198.7,147.8H75.5c-1.3,0-2.4-1.1-2.4-2.4v-53c0-1.3,1.1-2.4,2.4-2.4h123.2c1.3,0,2.4,1.1,2.4,2.4v53
	C201.1,146.8,200,147.8,198.7,147.8z"/>
<path class="st13" d="M195.6,145.1H78.5c-1.1,0-2-0.9-2-2v-36c0-1.1,0.9-2,2-2h117.1c1.1,0,2,0.9,2,2v36
	C197.6,144.2,196.7,145.1,195.6,145.1z"/>
<path class="st13" d="M82.3,98.8h-2.8c-0.6,0-1.1-0.5-1.1-1.1v-2.3c0-0.6,0.5-1.1,1.1-1.1h2.8c0.6,0,1.1,0.5,1.1,1.1v2.3
	C83.4,98.3,82.9,98.8,82.3,98.8z"/>
<path class="st13" d="M91.4,98.8h-2.8c-0.6,0-1.1-0.5-1.1-1.1v-2.3c0-0.6,0.5-1.1,1.1-1.1h2.8c0.6,0,1.1,0.5,1.1,1.1v2.3
	C92.5,98.3,92,98.8,91.4,98.8z"/>
<path class="st13" d="M100.5,98.8h-2.8c-0.6,0-1.1-0.5-1.1-1.1v-2.3c0-0.6,0.5-1.1,1.1-1.1h2.8c0.6,0,1.1,0.5,1.1,1.1v2.3
	C101.6,98.3,101.1,98.8,100.5,98.8z"/>
<path class="st14" d="M192.7,113.9h-64c-1.1,0-1.9-0.9-1.9-1.9c0-1.1,0.9-1.9,1.9-1.9h64c1.1,0,1.9,0.9,1.9,1.9
	C194.6,113.1,193.7,113.9,192.7,113.9z"/>
<path class="st14" d="M144.5,143.5h-64c-1.1,0-1.9-0.9-1.9-1.9s0.9-1.9,1.9-1.9h64c1.1,0,1.9,0.9,1.9,1.9
	C146.4,142.6,145.6,143.5,144.5,143.5z"/>
<path class="st14" d="M156.3,143.5h-6.6c-0.4,0-0.7-0.3-0.7-0.7v-2.5c0-0.4,0.3-0.7,0.7-0.7h6.6c0.4,0,0.7,0.3,0.7,0.7v2.5
	C157,143.2,156.7,143.5,156.3,143.5z"/>
<path class="st14" d="M166.3,143.5h-6.6c-0.4,0-0.7-0.3-0.7-0.7v-2.5c0-0.4,0.3-0.7,0.7-0.7h6.6c0.4,0,0.7,0.3,0.7,0.7v2.5
	C167,143.2,166.7,143.5,166.3,143.5z"/>
<path class="st14" d="M193.3,122.3h-106c-0.7,0-1.3-0.6-1.3-1.3c0-0.7,0.6-1.3,1.3-1.3h106c0.7,0,1.3,0.6,1.3,1.3
	C194.6,121.7,194,122.3,193.3,122.3z"/>
<path class="st14" d="M193.3,127.9h-106c-0.7,0-1.3-0.6-1.3-1.3c0-0.7,0.6-1.3,1.3-1.3h106c0.7,0,1.3,0.6,1.3,1.3
	C194.6,127.3,194,127.9,193.3,127.9z"/>
<path class="st15" d="M246.6,133.7c0,9.2-7.4,16.6-16.6,16.6s-16.6-7.4-16.6-16.6c0-9.2,7.4-16.6,16.6-16.6S246.6,124.5,246.6,133.7
	z"/>
<path class="st13" d="M228.4,139.8C228.4,139.8,228.3,139.8,228.4,139.8c-0.4,0-0.7-0.2-0.9-0.4l-4.5-5.1c-0.5-0.5-0.4-1.3,0.1-1.8
	c0.5-0.5,1.3-0.4,1.8,0.1l3.6,4.1l8.7-8.5c0.5-0.5,1.3-0.5,1.8,0c0.5,0.5,0.5,1.3,0,1.8l-9.6,9.4C229,139.7,228.7,139.8,228.4,139.8
	z"/>
<path class="st14" d="M353.1,56.5H247.5c-2.7,0-4.9-2.2-4.9-4.9V13.8c0-2.7,2.2-4.9,4.9-4.9h105.7c2.7,0,4.9,2.2,4.9,4.9v37.8
	C358,54.3,355.8,56.5,353.1,56.5z"/>
<path class="st14" d="M256.5,49.3v26.3l30.3-30.3C286.7,45.3,257.1,49.3,256.5,49.3z"/>
<path class="st13" d="M347.9,51.8h-95.2c-2.3,0-4.2-1.9-4.2-4.2V17.8c0-2.3,1.9-4.2,4.2-4.2h95.2c2.3,0,4.2,1.9,4.2,4.2v29.8
	C352.1,49.9,350.2,51.8,347.9,51.8z"/>
<path class="st14" d="M304.9,23h-46.8c-1.1,0-2-0.9-2-2.1s0.9-2.1,2-2.1h46.8c1.1,0,2,0.9,2,2.1S306,23,304.9,23z"/>
<path class="st14" d="M344,30.9h-86.8c-0.6,0-1.1-0.5-1.1-1.1v0c0-0.6,0.5-1.1,1.1-1.1H344c0.6,0,1.1,0.5,1.1,1.1v0
	C345.1,30.4,344.6,30.9,344,30.9z"/>
<path class="st14" d="M344,35.4h-86.8c-0.6,0-1.1-0.5-1.1-1.1v0c0-0.6,0.5-1.1,1.1-1.1H344c0.6,0,1.1,0.5,1.1,1.1v0
	C345.1,34.8,344.6,35.4,344,35.4z"/>
<path class="st14" d="M326,50.1h-2.8c-0.6,0-1.1-0.5-1.1-1.1v-2.3c0-0.6,0.5-1.1,1.1-1.1h2.8c0.6,0,1.1,0.5,1.1,1.1V49
	C327.1,49.6,326.6,50.1,326,50.1z"/>
<path class="st14" d="M335.2,50.1h-2.8c-0.6,0-1.1-0.5-1.1-1.1v-2.3c0-0.6,0.5-1.1,1.1-1.1h2.8c0.6,0,1.1,0.5,1.1,1.1V49
	C336.2,49.6,335.8,50.1,335.2,50.1z"/>
<path class="st14" d="M344.3,50.1h-2.8c-0.6,0-1.1-0.5-1.1-1.1v-2.3c0-0.6,0.5-1.1,1.1-1.1h2.8c0.6,0,1.1,0.5,1.1,1.1V49
	C345.4,49.6,344.9,50.1,344.3,50.1z"/>
</svg>
