<svg width="158" height="48" viewBox="0 0 158 48" fill="none" xmlns="http://www.w3.org/2000/svg">
<path d="M137.08 0H20.9448C9.3865 0 0 9.3865 0 20.9448C0 32.5031 9.3865 41.8896 20.9448 41.8896H54.1104C54.957 41.8896 55.6564 41.1902 55.6564 40.3436C55.6564 39.4969 54.957 38.7975 54.1104 38.7975H20.9448C11.0798 38.7975 3.09202 30.773 3.09202 20.9448C3.09202 11.1166 11.0798 3.09202 20.9448 3.09202H137.08C146.945 3.09202 154.932 11.1166 154.932 20.9448C154.932 30.773 146.908 38.7975 137.08 38.7975H68.319C67.4724 38.7975 66.773 39.4969 66.773 40.3436C66.773 41.1902 67.4724 41.8896 68.319 41.8896H137.043C148.601 41.8896 157.988 32.5031 157.988 20.9448C157.988 9.3865 148.638 0 137.08 0Z" fill="#1D1C1D"/>
<path d="M32.1349 32.6135C32.4662 32.9448 32.8711 33.1288 33.3865 33.1288C33.9018 33.1288 34.3067 32.9448 34.638 32.6135C34.9693 32.2822 35.1165 31.8773 35.1165 31.3988V10.4908C35.1165 10.0123 34.9693 9.57056 34.638 9.27608C34.3067 8.94479 33.9018 8.79755 33.4233 8.79755C32.9448 8.79755 32.503 8.94479 32.2086 9.27608C31.8773 9.60737 31.73 10.0123 31.73 10.4908V19.2147H18.0736V10.4908C18.0736 9.97547 17.8895 9.57056 17.5583 9.23927C17.227 8.90798 16.8221 8.76074 16.3067 8.76074C15.8282 8.76074 15.4233 8.90798 15.092 9.23927C14.7607 9.57056 14.5767 9.97547 14.5767 10.4908V31.362C14.5767 31.8405 14.7607 32.2454 15.092 32.5767C15.4233 32.908 15.8282 33.092 16.3067 33.092C16.7852 33.092 17.227 32.908 17.5583 32.5767C17.8895 32.2454 18.0736 31.8405 18.0736 31.362V22.3804H31.6564V31.3988C31.6564 31.8773 31.8036 32.2822 32.1349 32.6135Z" fill="#1D1C1D"/>
<path d="M54.92 25.325C55.2145 25.0305 55.3985 24.6624 55.3985 24.1839C55.3985 22.5643 55.0673 21.0919 54.4415 19.8036C53.7789 18.5152 52.8587 17.4845 51.6807 16.7483C50.5028 16.0121 49.0673 15.644 47.4476 15.644C45.828 15.644 44.3556 16.0121 43.1041 16.7851C41.8525 17.5582 40.8587 18.5888 40.1593 19.914C39.4599 21.2391 39.0918 22.7483 39.0918 24.4416C39.0918 26.1348 39.4599 27.644 40.2329 28.9692C41.0059 30.2943 42.0366 31.325 43.3617 32.098C44.6869 32.8342 46.2329 33.2023 47.9262 33.2023C48.92 33.2023 49.9507 33.0183 50.9814 32.6502C52.0489 32.2821 52.9323 31.8035 53.6685 31.1778C54.0366 30.8833 54.2206 30.4784 54.1838 30.0367C54.1838 29.595 53.963 29.2269 53.5949 28.8588C53.3004 28.6011 52.9323 28.4907 52.5274 28.4907C52.1225 28.4907 51.7544 28.6379 51.4231 28.8956C51.055 29.2269 50.5028 29.4845 49.8771 29.7054C49.2145 29.9262 48.5519 30.0367 47.9262 30.0367C46.8219 30.0367 45.828 29.779 44.9814 29.3005C44.1347 28.822 43.4722 28.1226 42.9936 27.2759C42.6992 26.7606 42.5151 26.2085 42.3679 25.6195H53.7789C54.2574 25.7299 54.6255 25.5827 54.92 25.325ZM42.4415 22.822C42.5519 22.3434 42.6992 21.9017 42.8832 21.4968C43.2881 20.6502 43.9139 19.9876 44.6869 19.4723C45.4599 18.9937 46.3801 18.7361 47.4476 18.7361C48.4415 18.7361 49.2881 18.9569 49.9875 19.4355C50.6869 19.8772 51.239 20.5397 51.6071 21.3496C51.828 21.7913 51.9752 22.3066 52.0857 22.822H42.4415Z" fill="#1D1C1D"/>
<path d="M86.9449 32.4663C88.4541 33.0921 90.1105 33.3865 91.9142 33.3865C93.7179 33.3865 95.3743 33.0553 96.8835 32.4663C98.3927 31.8405 99.7179 30.9571 100.822 29.8528C101.926 28.7485 102.81 27.4234 103.399 25.8773C103.988 24.3681 104.282 22.6749 104.282 20.908C104.282 19.1043 103.988 17.4479 103.362 15.9387C102.773 14.4295 101.89 13.1043 100.785 12C99.681 10.8958 98.3559 10.0123 96.8467 9.38655C95.3375 8.76079 93.6811 8.46631 91.8774 8.46631C90.0737 8.46631 88.4173 8.7976 86.9081 9.38655C85.3988 10.0123 84.0737 10.8958 82.9694 12C81.8651 13.1043 80.9817 14.4295 80.3927 15.9387C79.8038 17.4479 79.5093 19.1043 79.5093 20.908C79.5093 22.7117 79.8038 24.3681 80.3927 25.8773C80.9817 27.3866 81.8651 28.7485 82.9694 29.8528C84.1105 30.9939 85.4357 31.8405 86.9449 32.4663ZM82.8958 20.9448C82.8958 19.6565 83.1166 18.405 83.5584 17.3007C84.0001 16.1964 84.6258 15.2025 85.4357 14.3927C86.2455 13.5829 87.2025 12.9203 88.3068 12.4418C89.4111 11.9632 90.6258 11.7424 91.9142 11.7424C93.2025 11.7424 94.4172 11.9632 95.5215 12.4418C96.6258 12.8835 97.5829 13.5461 98.3559 14.3559C99.1657 15.2025 99.7915 16.1596 100.233 17.2639C100.675 18.3681 100.896 19.5829 100.896 20.908C100.896 22.1964 100.675 23.4479 100.233 24.5522C99.7915 25.6565 99.1657 26.6504 98.3559 27.497C97.5461 28.3068 96.589 28.9694 95.5215 29.4111C94.4172 29.8528 93.2025 30.1105 91.9142 30.1105C90.6258 30.1105 89.4111 29.8896 88.3068 29.4111C87.2025 28.9694 86.2455 28.3068 85.4357 27.4602C84.6258 26.6504 84.0001 25.6565 83.5584 24.5522C83.1166 23.4479 82.8958 22.2332 82.8958 20.9448Z" fill="#1D1C1D"/>
<path d="M111.24 9.27608C110.908 8.94479 110.503 8.79755 110.025 8.79755C109.583 8.79755 109.178 8.9816 108.847 9.27608C108.516 9.60737 108.332 10.0123 108.332 10.4908V31.362C108.332 31.8405 108.516 32.2454 108.847 32.5767C109.178 32.908 109.583 33.0552 110.025 33.0552C110.503 33.0552 110.908 32.8712 111.24 32.5767C111.571 32.2454 111.755 31.8405 111.755 31.362V24L113.779 21.9387L121.473 32.3558C121.804 32.8712 122.282 33.1288 122.908 33.1288C123.35 33.1288 123.718 32.9816 124.013 32.6503C124.27 32.3558 124.454 31.9877 124.491 31.5828C124.528 31.1411 124.454 30.7362 124.16 30.3681L116.209 19.546L124.049 11.7055C124.381 11.3374 124.565 10.9325 124.601 10.4908C124.638 10.0491 124.528 9.64418 124.27 9.31289C124.013 8.94479 123.571 8.76074 123.019 8.76074C122.798 8.76074 122.54 8.79755 122.319 8.90798C122.098 8.9816 121.914 9.12884 121.657 9.38651L111.755 19.2883V10.4908C111.792 10.0123 111.608 9.60737 111.24 9.27608Z" fill="#1D1C1D"/>
<path d="M142.38 20.3558C143.08 19.2147 143.411 17.9264 143.411 16.4908C143.411 14.9816 143.08 13.6196 142.38 12.4785C141.681 11.3374 140.724 10.4172 139.546 9.75461C138.331 9.09203 136.969 8.76074 135.423 8.76074H129.865C129.386 8.76074 128.981 8.90798 128.65 9.23927C128.319 9.57056 128.135 9.97547 128.135 10.4908V31.362C128.135 31.8405 128.319 32.2454 128.65 32.5767C128.981 32.908 129.386 33.092 129.865 33.092C130.343 33.092 130.785 32.908 131.116 32.5767C131.448 32.2454 131.632 31.8405 131.632 31.362V23.9632H135.46C135.57 23.9632 135.681 23.9632 135.754 23.9632L140.945 32.2086C141.092 32.5031 141.313 32.7239 141.534 32.8712C141.791 33.0184 142.086 33.092 142.417 33.092C143.337 33.092 143.779 32.6503 143.963 32.2454C144.147 31.8773 144.294 31.2515 143.779 30.4417L139.215 23.1902C139.325 23.1534 139.435 23.0798 139.546 23.0429C140.724 22.3804 141.681 21.4969 142.38 20.3558ZM140.061 16.5276C140.061 17.3374 139.877 18.0368 139.472 18.6626C139.067 19.2883 138.515 19.7669 137.816 20.135C137.116 20.5031 136.307 20.6871 135.386 20.6871H131.558V12.1104H135.386C136.307 12.1104 137.116 12.2945 137.816 12.6626C138.515 13.0307 139.067 13.546 139.472 14.2086C139.84 14.8712 140.061 15.6442 140.061 16.5276Z" fill="#1D1C1D"/>
<path d="M73.0677 16.6382C72.9205 16.2701 72.5892 15.9757 72.1107 15.7916C71.1536 15.3867 70.3806 15.6812 69.9757 16.6014L65.0064 27.6444L59.669 16.5646C59.4481 16.1229 59.1536 15.8284 58.7487 15.6812C58.3806 15.5339 57.9389 15.5708 57.4972 15.7548C57.0923 15.9757 56.7978 16.2701 56.6506 16.6382C56.4665 17.0431 56.5033 17.4849 56.7242 17.8898L63.3868 31.2885L57.0555 45.6444C56.8346 46.1229 56.7978 46.5278 56.945 46.8959C57.0923 47.264 57.3868 47.5953 57.9021 47.8162C58.1966 47.9266 58.4542 48.0002 58.6751 48.0002C59.1168 48.0002 59.7058 47.8162 60.0371 46.9695L73.0309 17.853C73.1782 17.4481 73.215 17.0063 73.0677 16.6382Z" fill="#1D1C1D"/>
</svg>
