<svg width="40" height="40" viewBox="0 0 40 40" fill="none" xmlns="http://www.w3.org/2000/svg">
<path d="M20 0C9 0 0 9 0 20C0 31 9 40 20 40C31 40 40 31 40 20C40 9 31 0 20 0ZM20 38C10.1 38 2 29.9 2 20C2 10.1 10.1 2 20 2C29.9 2 38 10.1 38 20C38 29.9 29.9 38 20 38Z" fill="#F57C3D"/>
<path d="M20.8 14.3C20.4 13.9 19.8 13.8 19.4 14.2L19.3 14.3L12.3 22.3C11.9 22.7 11.9 23.3 12.3 23.7C12.7 24.1 13.3 24.1 13.7 23.7C13.7 23.7 13.7 23.7 13.8 23.6L20 16.5L26.2 23.6C26.4 23.8 26.7 23.9 27 23.9C27.6 23.9 28 23.5 28 22.9C28 22.7 27.9 22.4 27.8 22.2L20.8 14.3Z" fill="#F57C3D"/>
</svg>
